<?xml version="1.0" encoding="UTF-8" standalone="no"?><!DOCTYPE svg PUBLIC "-//W3C//DTD SVG 1.1//EN" "http://www.w3.org/Graphics/SVG/1.1/DTD/svg11.dtd"><svg width="100%" height="100%" viewBox="0 0 913 469" version="1.1" xmlns="http://www.w3.org/2000/svg" xmlns:xlink="http://www.w3.org/1999/xlink" xml:space="preserve" xmlns:serif="http://www.serif.com/" style="fill-rule:evenodd;clip-rule:evenodd;stroke-linejoin:round;stroke-miterlimit:1.41421;"><path d="M199.222,444.669c2.723,0 4.485,2.913 3.175,5.287c-6.117,11.091 -17.95,18.608 -31.55,18.608c-13.6,0 -25.432,-7.517 -31.549,-18.608c-1.311,-2.374 0.451,-5.287 3.175,-5.287l56.749,0Zm14.134,-5.819l-82.077,0c-9.712,0 -17.586,-7.164 -17.586,-16c0,-8.836 7.874,-16.005 17.586,-16.005l82.077,0c9.712,0 17.586,7.169 17.586,16.005c0,8.833 -7.869,15.995 -17.586,16Zm25.655,-125.041c0.33,0.059 2.991,1.225 5.782,3.627c4.274,3.679 8.854,10.258 5.835,20.209c-5.182,17.083 -21.514,15.796 -22.149,15.691c-86.577,-14.317 -144.116,-87.146 -143.78,-175.628c0.374,-98.459 82.586,-178.086 183.475,-177.707c100.889,0.38 182.495,80.624 182.121,179.083c-0.263,69.387 -41.533,144.067 -106.759,166.428l58.793,47.059c9.439,9.824 9.275,25.241 -0.359,34.427c-9.632,9.183 -25.089,8.669 -34.539,-1.156c0,0 -39.189,-36.67 -70.792,-65.996c-10.535,-9.776 -8.365,-32.563 19.045,-42.268c48.321,-17.108 90.477,-71.427 90.733,-138.747c0.283,-74.768 -61.24,-135.702 -137.303,-135.988c-76.063,-0.287 -138.046,60.183 -138.33,134.95c-0.253,66.537 43.897,124.383 108.227,136.016Zm-18.871,87.158l-96.915,0c-6.175,0 -11.181,-7.164 -11.181,-16c0,-8.836 5.006,-16 11.181,-16l96.915,0c6.175,0 11.181,7.164 11.181,16c0,8.831 -5,15.991 -11.181,16Zm5.014,-39.149l-99.588,0c-8.871,0 -11.971,-8.352 -11.971,-17.188c0,0 -0.318,-52.805 -0.329,-53.457c-0.004,-0.246 0.104,-0.361 0.213,-0.393c0.076,-0.023 0.201,0.07 0.401,0.359c1.571,2.272 6.132,9.212 18.489,22.269c5.294,5.593 19.242,16.497 21.207,17.905c8.835,6.332 19.525,12.703 31.248,17.158c20.243,7.694 40.865,11.356 40.865,11.356c0.946,0.546 0.562,1.981 -0.535,1.991Z" style="fill:#8512a1;"/><text x="403.189px" y="417.061px" style="font-family:'RobotoMonoNerdFontComplete-Thin', 'RobotoMono NF';font-weight:250;font-size:208.8px;fill:#8512a1;">e<tspan x="502.895px 602.601px 702.307px 802.013px " y="417.061px 417.061px 417.061px 417.061px ">ctio</tspan></text><text x="736.07px" y="462.601px" style="font-family:'SegoeUISymbol', 'Segoe UI Symbol', sans-serif;font-size:48px;fill:#beacc1;">@<tspan x="779.993px 811.73px 844.356px 870.561px 885.329px " y="462.601px 462.601px 462.601px 462.601px 462.601px ">DworX</tspan></text><text x="-20.391px" y="419.1px" style="font-family:'RobotoMonoNerdFontComplete-Thin', 'RobotoMono NF';font-weight:250;font-size:208.8px;fill:#8512a1;">D</text></svg>