<?xml version="1.0" encoding="UTF-8" standalone="no"?><!DOCTYPE svg PUBLIC "-//W3C//DTD SVG 1.1//EN" "http://www.w3.org/Graphics/SVG/1.1/DTD/svg11.dtd"><svg width="100%" height="100%" viewBox="0 0 877 315" version="1.1" xmlns="http://www.w3.org/2000/svg" xmlns:xlink="http://www.w3.org/1999/xlink" xml:space="preserve" xmlns:serif="http://www.serif.com/" style="fill-rule:evenodd;clip-rule:evenodd;stroke-linejoin:round;stroke-miterlimit:1.41421;"><path d="M235.39,0c62.426,0 115.112,46.092 131.279,108.909c3.328,12.929 5.108,26.566 5.108,40.656c0,82.547 -61.113,149.564 -136.387,149.564c-75.274,0 -136.387,-67.017 -136.387,-149.564c0,-82.547 61.113,-149.565 136.387,-149.565Zm-28.653,245.673c1.206,0 1.986,1.389 1.406,2.522c-2.709,5.291 -7.949,8.877 -13.972,8.877c-6.023,0 -11.263,-3.586 -13.972,-8.877c-0.581,-1.133 0.2,-2.522 1.406,-2.522l25.132,0Zm6.259,-2.776c4.304,-0.002 7.788,-3.419 7.788,-7.633c0,-4.215 -3.487,-7.635 -7.788,-7.635l-36.348,0c-4.302,0 -7.789,3.42 -7.789,7.635c0,4.215 3.487,7.633 7.789,7.633l36.348,0Zm11.362,-59.652c0.146,0.029 1.324,0.585 2.56,1.731c1.893,1.755 3.921,4.894 2.584,9.641c-2.295,8.149 -9.528,7.535 -9.809,7.485c-38.341,-6.83 -63.822,-41.573 -63.674,-83.784c0.166,-46.97 36.574,-84.957 81.254,-84.776c44.679,0.181 80.819,38.462 80.653,85.432c-0.116,33.102 -18.393,68.728 -47.279,79.396l26.037,22.449c4.181,4.687 4.108,12.042 -0.159,16.424c-4.265,4.38 -11.111,4.135 -15.296,-0.551c0,0 -17.355,-17.494 -31.35,-31.484c-4.666,-4.664 -3.705,-15.535 8.434,-20.164c21.399,-8.162 40.068,-34.075 40.182,-66.19c0.125,-35.669 -27.121,-64.738 -60.806,-64.874c-33.685,-0.137 -61.135,28.71 -61.261,64.379c-0.111,31.741 19.44,59.337 47.93,64.886Zm-8.358,41.579c2.738,-0.004 4.952,-3.42 4.952,-7.632c0,-4.216 -2.217,-7.633 -4.952,-7.633l-42.919,0c-2.735,0 -4.952,3.417 -4.952,7.633c0,4.215 2.217,7.632 4.952,7.632l42.919,0Zm2.221,-18.676c0.486,-0.004 0.656,-0.689 0.237,-0.949c0,0 -9.133,-1.748 -18.098,-5.418c-5.191,-2.125 -9.925,-5.164 -13.838,-8.185c-0.87,-0.672 -7.047,-5.874 -9.391,-8.542c-5.473,-6.229 -7.493,-9.539 -8.189,-10.623c-0.088,-0.138 -0.144,-0.182 -0.177,-0.172c-0.049,0.016 -0.096,0.071 -0.094,0.188c0.004,0.311 0.145,25.502 0.145,25.502c0,4.215 1.373,8.199 5.302,8.199l44.103,0Z" style="fill:#8512a1;"/><text x="366.757px" y="256.453px" style="font-family:'RobotoMonoNerdFontComplete-Thin', 'RobotoMono NF';font-weight:250;font-size:208.8px;fill:#8512a1;">e<tspan x="466.463px 566.169px 665.875px 765.581px " y="256.453px 256.453px 256.453px 256.453px ">ctio</tspan></text><text x="694.433px" y="310.331px" style="font-family:'SegoeUISymbol', 'Segoe UI Symbol', sans-serif;font-size:48px;fill:#beacc1;">@<tspan x="738.357px 770.093px 802.72px 828.925px 843.692px " y="310.331px 310.331px 310.331px 310.331px 310.331px ">DworX</tspan></text><text x="-20.391px" y="258.492px" style="font-family:'RobotoMonoNerdFontComplete-Thin', 'RobotoMono NF';font-weight:250;font-size:208.8px;fill:#8512a1;">D</text></svg>