<?xml version="1.0" encoding="UTF-8" standalone="no"?><!DOCTYPE svg PUBLIC "-//W3C//DTD SVG 1.1//EN" "http://www.w3.org/Graphics/SVG/1.1/DTD/svg11.dtd"><svg width="100%" height="100%" viewBox="0 0 3000 2000" version="1.1" xmlns="http://www.w3.org/2000/svg" xmlns:xlink="http://www.w3.org/1999/xlink" xml:space="preserve" xmlns:serif="http://www.serif.com/" style="fill-rule:evenodd;clip-rule:evenodd;stroke-linejoin:round;stroke-miterlimit:1.41421;"><g><path d="M763.906,398.583c282.057,0 520.109,194.085 593.156,458.594c15.034,54.441 23.079,111.865 23.079,171.194c0,347.59 -276.126,629.788 -616.235,629.788c-340.109,0 -616.235,-282.198 -616.235,-629.788c0,-347.59 276.126,-629.788 616.235,-629.788Zm-129.464,1034.48c5.449,0 8.976,5.85 6.353,10.62c-12.24,22.28 -35.916,37.38 -63.129,37.38c-27.213,0 -50.889,-15.1 -63.128,-37.38c-2.624,-4.77 0.903,-10.62 6.352,-10.62l113.552,0Zm28.282,-11.69c19.444,-0.01 35.189,-14.396 35.189,-32.14c0,-17.75 -15.755,-32.15 -35.189,-32.15l-164.232,0c-19.434,0 -35.189,14.4 -35.189,32.15c0,17.75 15.755,32.14 35.189,32.14l164.232,0Zm51.335,-251.181c0.659,0.12 5.984,2.461 11.569,7.287c8.552,7.389 17.716,20.606 11.676,40.595c-10.37,34.316 -43.05,31.73 -44.32,31.52c-173.235,-28.76 -288.368,-175.058 -287.696,-352.8c0.748,-197.782 165.251,-357.737 367.125,-356.974c201.873,0.763 365.162,161.957 364.415,359.739c-0.527,139.383 -83.105,289.4 -213.62,334.319l117.642,94.531c18.888,19.734 18.56,50.703 -0.719,69.155c-19.273,18.447 -50.201,17.414 -69.11,-2.321c0,0 -78.415,-73.663 -141.652,-132.572c-21.08,-19.638 -16.738,-65.413 38.109,-84.907c96.687,-34.366 181.04,-143.481 181.552,-278.713c0.567,-150.192 -122.538,-272.597 -274.736,-273.172c-152.198,-0.575 -276.225,120.895 -276.793,271.087c-0.505,133.658 87.836,249.858 216.558,273.226Zm-37.761,175.081c12.368,-0.017 22.373,-14.401 22.373,-32.14c0,-17.75 -10.017,-32.14 -22.373,-32.14l-193.921,0c-12.356,0 -22.373,14.39 -22.373,32.14c0,17.75 10.017,32.14 22.373,32.14l193.921,0Zm10.033,-78.641c2.195,-0.019 2.964,-2.903 1.07,-4c0,0 -41.263,-7.356 -81.768,-22.81c-23.458,-8.95 -44.848,-21.748 -62.526,-34.467c-3.932,-2.828 -31.841,-24.733 -42.433,-35.969c-24.726,-26.229 -33.853,-40.169 -36.997,-44.732c-0.4,-0.581 -0.651,-0.768 -0.802,-0.723c-0.218,0.066 -0.434,0.297 -0.425,0.792c0.022,1.307 0.657,107.382 0.657,107.382c0,17.75 6.204,34.527 23.954,34.527l199.27,0Z" style="fill:#8512a1;"/></g></svg>