<?xml version="1.0" encoding="UTF-8" standalone="no"?><!DOCTYPE svg PUBLIC "-//W3C//DTD SVG 1.1//EN" "http://www.w3.org/Graphics/SVG/1.1/DTD/svg11.dtd"><svg width="100%" height="100%" viewBox="0 0 282 300" version="1.1" xmlns="http://www.w3.org/2000/svg" xmlns:xlink="http://www.w3.org/1999/xlink" xml:space="preserve" xmlns:serif="http://www.serif.com/" style="fill-rule:evenodd;clip-rule:evenodd;stroke-linejoin:round;stroke-miterlimit:1.41421;"><path d="M140.941,0c64.511,0 118.956,46.092 135.663,108.909c3.439,12.929 5.279,26.566 5.279,40.656c0,82.547 -63.154,149.564 -140.942,149.564c-77.787,0 -140.941,-67.017 -140.941,-149.564c0,-82.547 63.154,-149.565 140.941,-149.565Zm-29.61,245.673c1.246,0 2.053,1.389 1.453,2.522c-2.799,5.291 -8.214,8.877 -14.438,8.877c-6.224,0 -11.639,-3.586 -14.439,-8.877c-0.6,-1.133 0.207,-2.522 1.453,-2.522l25.971,0Zm6.468,-2.776c4.448,-0.002 8.049,-3.419 8.049,-7.633c0,-4.215 -3.604,-7.635 -8.049,-7.635l-37.562,0c-4.444,0 -8.048,3.42 -8.048,7.635c0,4.215 3.604,7.633 8.048,7.633l37.562,0Zm11.742,-59.652c0.15,0.029 1.368,0.585 2.645,1.731c1.957,1.755 4.052,4.894 2.671,9.641c-2.372,8.149 -9.846,7.535 -10.136,7.485c-39.622,-6.83 -65.954,-41.573 -65.801,-83.784c0.171,-46.97 37.795,-84.957 83.967,-84.776c46.171,0.181 83.518,38.462 83.347,85.432c-0.121,33.102 -19.008,68.728 -48.858,79.396l26.906,22.449c4.32,4.687 4.245,12.042 -0.164,16.424c-4.408,4.38 -11.482,4.135 -15.807,-0.551c0,0 -17.934,-17.494 -32.397,-31.484c-4.822,-4.664 -3.829,-15.535 8.716,-20.164c22.113,-8.162 41.406,-34.075 41.523,-66.19c0.13,-35.669 -28.026,-64.738 -62.836,-64.874c-34.81,-0.137 -63.176,28.71 -63.306,64.379c-0.116,31.741 20.089,59.337 49.53,64.886Zm-8.637,41.579c2.829,-0.004 5.117,-3.42 5.117,-7.632c0,-4.216 -2.291,-7.633 -5.117,-7.633l-44.352,0c-2.826,0 -5.117,3.417 -5.117,7.633c0,4.215 2.291,7.632 5.117,7.632l44.352,0Zm2.295,-18.676c0.502,-0.004 0.678,-0.689 0.245,-0.949c0,0 -9.438,-1.748 -18.702,-5.418c-5.365,-2.125 -10.257,-5.164 -14.301,-8.185c-0.899,-0.672 -7.282,-5.874 -9.705,-8.542c-5.655,-6.229 -7.742,-9.539 -8.461,-10.623c-0.092,-0.138 -0.149,-0.182 -0.184,-0.172c-0.05,0.016 -0.099,0.071 -0.097,0.188c0.005,0.311 0.15,25.502 0.15,25.502c0,4.215 1.419,8.199 5.479,8.199l45.576,0Z" style="fill:#8512a1;"/></svg>