<?xml version="1.0" encoding="UTF-8" standalone="no"?><!DOCTYPE svg PUBLIC "-//W3C//DTD SVG 1.1//EN" "http://www.w3.org/Graphics/SVG/1.1/DTD/svg11.dtd"><svg width="100%" height="100%" viewBox="0 0 877 315" version="1.1" xmlns="http://www.w3.org/2000/svg" xmlns:xlink="http://www.w3.org/1999/xlink" xml:space="preserve" xmlns:serif="http://www.serif.com/" style="fill-rule:evenodd;clip-rule:evenodd;stroke-linejoin:round;stroke-miterlimit:1.41421;"><path d="M239.944,0c64.51,0 118.956,46.092 135.663,108.909c3.438,12.929 5.278,26.566 5.278,40.656c0,82.547 -63.153,149.564 -140.941,149.564c-77.788,0 -140.941,-67.017 -140.941,-149.564c0,-82.547 63.153,-149.565 140.941,-149.565Zm-29.61,245.673c1.246,0 2.053,1.389 1.453,2.522c-2.8,5.291 -8.215,8.877 -14.439,8.877c-6.224,0 -11.639,-3.586 -14.438,-8.877c-0.6,-1.133 0.207,-2.522 1.453,-2.522l25.971,0Zm6.468,-2.776c4.448,-0.002 8.049,-3.419 8.049,-7.633c0,-4.215 -3.604,-7.635 -8.049,-7.635l-37.562,0c-4.445,0 -8.048,3.42 -8.048,7.635c0,4.215 3.603,7.633 8.048,7.633l37.562,0Zm11.741,-59.652c0.151,0.029 1.369,0.585 2.646,1.731c1.956,1.755 4.052,4.894 2.671,9.641c-2.372,8.149 -9.846,7.535 -10.137,7.485c-39.621,-6.83 -65.953,-41.573 -65.8,-83.784c0.171,-46.97 37.795,-84.957 83.967,-84.776c46.171,0.181 83.517,38.462 83.346,85.432c-0.12,33.102 -19.007,68.728 -48.857,79.396l26.906,22.449c4.32,4.687 4.245,12.042 -0.165,16.424c-4.408,4.38 -11.481,4.135 -15.806,-0.551c0,0 -17.935,-17.494 -32.398,-31.484c-4.821,-4.664 -3.828,-15.535 8.716,-20.164c22.114,-8.162 41.407,-34.075 41.524,-66.19c0.129,-35.669 -28.026,-64.738 -62.836,-64.874c-34.81,-0.137 -63.177,28.71 -63.306,64.379c-0.116,31.741 20.089,59.337 49.529,64.886Zm-8.636,41.579c2.829,-0.004 5.117,-3.42 5.117,-7.632c0,-4.216 -2.291,-7.633 -5.117,-7.633l-44.353,0c-2.826,0 -5.117,3.417 -5.117,7.633c0,4.215 2.291,7.632 5.117,7.632l44.353,0Zm2.295,-18.676c0.502,-0.004 0.677,-0.689 0.244,-0.949c0,0 -9.437,-1.748 -18.701,-5.418c-5.365,-2.125 -10.258,-5.164 -14.301,-8.185c-0.899,-0.672 -7.282,-5.874 -9.705,-8.542c-5.655,-6.229 -7.742,-9.539 -8.461,-10.623c-0.092,-0.138 -0.149,-0.182 -0.184,-0.172c-0.05,0.016 -0.099,0.071 -0.097,0.188c0.005,0.311 0.15,25.502 0.15,25.502c0,4.215 1.419,8.199 5.479,8.199l45.576,0Z" style="fill:#8512a1;"/><text x="366.757px" y="256.453px" style="font-family:'RobotoMonoNerdFontComplete-Thin', 'RobotoMono NF';font-weight:250;font-size:208.8px;fill:#8512a1;">e<tspan x="466.463px 566.169px 665.875px 765.581px " y="256.453px 256.453px 256.453px 256.453px ">ctio</tspan></text><text x="694.433px" y="310.331px" style="font-family:'SegoeUISymbol', 'Segoe UI Symbol', sans-serif;font-size:48px;fill:#beacc1;">@<tspan x="738.357px 770.093px 802.72px 828.925px 843.692px " y="310.331px 310.331px 310.331px 310.331px 310.331px ">DworX</tspan></text><text x="-20.391px" y="258.492px" style="font-family:'RobotoMonoNerdFontComplete-Thin', 'RobotoMono NF';font-weight:250;font-size:208.8px;fill:#8512a1;">D</text></svg>