<?xml version="1.0" encoding="UTF-8" standalone="no"?><!DOCTYPE svg PUBLIC "-//W3C//DTD SVG 1.1//EN" "http://www.w3.org/Graphics/SVG/1.1/DTD/svg11.dtd"><svg width="100%" height="100%" viewBox="0 0 1127 473" version="1.1" xmlns="http://www.w3.org/2000/svg" xmlns:xlink="http://www.w3.org/1999/xlink" xml:space="preserve" xmlns:serif="http://www.serif.com/" style="fill-rule:evenodd;clip-rule:evenodd;stroke-linejoin:round;stroke-miterlimit:1.41421;"><path d="M0,427.413l0,-421.445l114.237,0c148.117,0 222.175,68.523 222.175,205.569c0,65.278 -21.187,117.577 -63.56,156.897c-42.374,39.32 -96.963,58.979 -163.769,58.979l-109.083,0Zm46.096,-378.785l0,336.412l64.133,0c56.307,0 100.017,-15.127 131.129,-45.38c31.112,-30.253 46.668,-72.579 46.668,-126.978c0,-109.369 -58.311,-164.054 -174.934,-164.054l-66.996,0Z" style="fill:#8512a1;fill-rule:nonzero;"/><path d="M412.752,444.669c2.723,0 4.486,2.913 3.175,5.287c-6.117,11.091 -17.95,18.608 -31.55,18.608c-13.6,0 -25.432,-7.517 -31.549,-18.608c-1.311,-2.374 0.451,-5.287 3.175,-5.287l56.749,0Zm14.134,-5.819l-82.077,0c-9.712,0 -17.586,-7.164 -17.586,-16c0,-8.836 7.874,-16.005 17.586,-16.005l82.077,0c9.712,0 17.586,7.169 17.586,16.005c0,8.833 -7.868,15.995 -17.586,16Zm25.655,-125.041c0.33,0.059 2.991,1.225 5.782,3.627c4.274,3.679 8.854,10.258 5.835,20.209c-5.182,17.083 -21.514,15.796 -22.149,15.691c-86.577,-14.317 -144.115,-87.146 -143.78,-175.628c0.374,-98.459 82.586,-178.086 183.475,-177.707c100.889,0.38 182.495,80.624 182.121,179.083c-0.263,69.387 -41.533,144.067 -106.759,166.428l58.793,47.059c9.439,9.824 9.276,25.241 -0.359,34.427c-9.632,9.183 -25.089,8.669 -34.539,-1.156c0,0 -39.189,-36.67 -70.792,-65.996c-10.535,-9.776 -8.365,-32.563 19.045,-42.268c48.321,-17.108 90.477,-71.427 90.733,-138.747c0.284,-74.768 -61.24,-135.702 -137.303,-135.988c-76.063,-0.287 -138.046,60.183 -138.33,134.95c-0.253,66.537 43.897,124.383 108.227,136.016Zm-18.871,87.158l-96.915,0c-6.175,0 -11.181,-7.164 -11.181,-16c0,-8.836 5.006,-16 11.181,-16l96.915,0c6.175,0 11.181,7.164 11.181,16c0,8.831 -5,15.991 -11.181,16Zm5.014,-39.149l-99.588,0c-8.87,0 -11.971,-8.352 -11.971,-17.188c0,0 -0.318,-52.805 -0.329,-53.457c-0.004,-0.246 0.104,-0.361 0.213,-0.393c0.076,-0.023 0.201,0.07 0.401,0.359c1.571,2.272 6.132,9.212 18.49,22.269c5.293,5.593 19.241,16.497 21.206,17.905c8.835,6.332 19.525,12.703 31.248,17.158c20.243,7.694 40.865,11.356 40.865,11.356c0.946,0.546 0.562,1.981 -0.535,1.991Z" style="fill:#8512a1;"/><g><path d="M683.804,419.1c-7.544,0 -14.392,-1.513 -20.543,-4.537c-6.152,-3.025 -11.419,-7.086 -15.803,-12.184c-4.384,-5.097 -7.799,-10.943 -10.246,-17.536c-2.447,-6.593 -3.705,-13.457 -3.773,-20.594l0,-4.486c0.068,-6.865 1.224,-13.594 3.467,-20.187c2.243,-6.593 5.437,-12.472 9.583,-17.638c4.146,-5.165 9.176,-9.328 15.089,-12.489c5.914,-3.16 12.609,-4.741 20.085,-4.741c6.661,0 12.676,1.258 18.046,3.773c5.369,2.514 9.94,5.93 13.713,10.246c3.772,4.316 6.678,9.329 8.717,15.038c2.039,5.709 3.092,11.725 3.16,18.046l0,6.423l-86.354,0l0,6.015c0.068,6.321 1.189,12.455 3.364,18.402c2.175,5.948 5.217,11.215 9.125,15.803c3.908,4.588 8.598,8.258 14.07,11.011c5.471,2.753 11.571,4.163 18.3,4.231c6.865,0.068 13.169,-1.121 18.913,-3.568c5.743,-2.447 10.824,-6.321 15.242,-11.623l3.976,2.753c-4.69,6.117 -10.315,10.62 -16.874,13.509c-6.559,2.888 -13.644,4.333 -21.257,4.333Zm-2.141,-108.886c-6.117,0 -11.622,1.172 -16.516,3.517c-4.894,2.345 -9.125,5.489 -12.693,9.431c-3.569,3.942 -6.457,8.479 -8.666,13.611c-2.209,5.131 -3.654,10.45 -4.333,15.955l80.339,0l0,-1.325c0,-5.438 -0.935,-10.637 -2.804,-15.599c-1.869,-4.962 -4.469,-9.346 -7.799,-13.152c-3.331,-3.806 -7.341,-6.831 -12.031,-9.074c-4.69,-2.243 -9.855,-3.364 -15.497,-3.364Z" style="fill:#8512a1;fill-rule:nonzero;"/><path d="M780.656,413.594c4.689,0 9.124,-0.646 13.304,-1.937c4.181,-1.291 7.885,-3.211 11.113,-5.76c3.229,-2.549 5.863,-5.693 7.902,-9.431c2.039,-3.738 3.33,-8.02 3.874,-12.846l5.505,0c-0.543,5.505 -2.005,10.45 -4.384,14.834c-2.378,4.384 -5.42,8.105 -9.124,11.164c-3.705,3.059 -7.987,5.404 -12.846,7.035c-4.86,1.631 -9.975,2.447 -15.344,2.447c-7.749,0 -14.495,-1.564 -20.238,-4.69c-5.743,-3.127 -10.518,-7.256 -14.325,-12.387c-3.806,-5.132 -6.643,-10.994 -8.513,-17.587c-1.869,-6.593 -2.837,-13.39 -2.905,-20.391l0,-4.282c0.068,-6.933 1.036,-13.713 2.905,-20.34c1.87,-6.627 4.69,-12.506 8.463,-17.638c3.772,-5.131 8.513,-9.26 14.222,-12.387c5.709,-3.126 12.438,-4.69 20.187,-4.69c5.777,0 11.13,0.918 16.057,2.753c4.928,1.835 9.227,4.435 12.897,7.799c3.671,3.365 6.627,7.409 8.87,12.133c2.243,4.724 3.603,9.974 4.078,15.752l-5.505,0c-0.408,-4.962 -1.597,-9.465 -3.568,-13.509c-1.971,-4.044 -4.571,-7.511 -7.8,-10.399c-3.228,-2.889 -6.967,-5.115 -11.215,-6.678c-4.248,-1.564 -8.853,-2.345 -13.814,-2.345c-7.001,0 -13.016,1.41 -18.046,4.231c-5.03,2.82 -9.193,6.559 -12.489,11.215c-3.297,4.655 -5.727,9.957 -7.29,15.904c-1.563,5.948 -2.379,12.014 -2.447,18.199l0,4.282c0.068,6.321 0.884,12.438 2.447,18.352c1.563,5.913 3.993,11.18 7.29,15.802c3.296,4.622 7.476,8.343 12.54,11.164c5.064,2.821 11.13,4.231 18.199,4.231Z" style="fill:#8512a1;fill-rule:nonzero;"/><path d="M874.55,276.977l-0.102,29.77l39.762,0l0,5.608l-39.762,0l0,78.3c0.136,4.282 0.901,7.867 2.294,10.756c1.394,2.888 3.314,5.233 5.761,7.035c2.447,1.801 5.318,3.109 8.615,3.925c3.296,0.815 6.916,1.223 10.858,1.223c5.505,0 10.909,-0.306 16.21,-0.917l1.122,5.199c-2.787,0.544 -5.574,0.884 -8.36,1.02c-2.787,0.136 -5.608,0.204 -8.462,0.204c-4.894,0 -9.38,-0.493 -13.458,-1.479c-4.078,-0.985 -7.613,-2.599 -10.603,-4.842c-2.991,-2.243 -5.336,-5.166 -7.035,-8.768c-1.699,-3.603 -2.617,-8.055 -2.753,-13.356l0,-78.3l-32.421,0l0,-5.608l32.421,0l0,-29.77l5.913,0Z" style="fill:#8512a1;fill-rule:nonzero;"/><path d="M940.204,306.747l45.981,0l0,104.808l39.15,0l0,5.506l-85.131,0l0,-5.506l40.475,0l0,-99.302l-40.475,0l0,-5.506Zm35.786,-31.401c0,-0.952 0.102,-1.886 0.305,-2.804c0.204,-0.918 0.578,-1.733 1.122,-2.447c0.544,-0.714 1.274,-1.274 2.192,-1.682c0.918,-0.408 2.09,-0.612 3.517,-0.612c1.36,0 2.498,0.204 3.416,0.612c0.917,0.408 1.665,0.968 2.243,1.682c0.577,0.714 0.985,1.529 1.223,2.447c0.238,0.918 0.357,1.852 0.357,2.804c0,1.835 -0.527,3.5 -1.58,4.995c-1.054,1.496 -2.94,2.243 -5.659,2.243c-2.786,0 -4.673,-0.747 -5.658,-2.243c-0.986,-1.495 -1.478,-3.16 -1.478,-4.995Z" style="fill:#8512a1;fill-rule:nonzero;"/><path d="M1029.92,359.763c0.068,-7.069 1.189,-13.917 3.364,-20.544c2.175,-6.627 5.302,-12.489 9.38,-17.587c4.078,-5.097 9.091,-9.192 15.038,-12.285c5.947,-3.092 12.761,-4.639 20.442,-4.639c7.68,0 14.494,1.53 20.441,4.588c5.947,3.059 10.977,7.137 15.089,12.235c4.112,5.097 7.256,10.959 9.431,17.586c2.175,6.627 3.296,13.509 3.364,20.646l0,4.282c-0.068,7.069 -1.172,13.917 -3.313,20.544c-2.141,6.626 -5.251,12.489 -9.329,17.586c-4.078,5.098 -9.091,9.193 -15.038,12.286c-5.947,3.092 -12.761,4.639 -20.442,4.639c-7.68,0 -14.511,-1.53 -20.492,-4.588c-5.981,-3.059 -11.028,-7.137 -15.14,-12.235c-4.112,-5.097 -7.256,-10.96 -9.431,-17.587c-2.175,-6.626 -3.296,-13.508 -3.364,-20.645l0,-4.282Zm5.505,4.282c0.068,6.253 1.071,12.353 3.008,18.301c1.937,5.947 4.724,11.231 8.36,15.853c3.636,4.622 8.105,8.343 13.407,11.164c5.301,2.821 11.351,4.231 18.147,4.231c6.797,0 12.813,-1.41 18.046,-4.231c5.234,-2.821 9.669,-6.559 13.305,-11.215c3.636,-4.656 6.406,-9.94 8.309,-15.853c1.903,-5.914 2.889,-11.997 2.957,-18.25l0,-4.282c-0.068,-6.185 -1.071,-12.251 -3.008,-18.199c-1.937,-5.947 -4.724,-11.232 -8.36,-15.853c-3.636,-4.622 -8.105,-8.361 -13.407,-11.215c-5.301,-2.855 -11.317,-4.282 -18.045,-4.282c-6.729,0 -12.728,1.427 -17.995,4.282c-5.268,2.854 -9.72,6.593 -13.356,11.215c-3.636,4.621 -6.423,9.906 -8.36,15.853c-1.937,5.948 -2.94,12.014 -3.008,18.199l0,4.282Z" style="fill:#8512a1;fill-rule:nonzero;"/></g><g><path d="M973.596,457.96l-0.117,0c-1.147,3.737 -3.4,5.606 -6.76,5.606c-2.152,0 -3.883,-0.793 -5.194,-2.379c-1.311,-1.586 -1.967,-3.722 -1.967,-6.407c0,-3.549 0.907,-6.497 2.721,-8.844c1.813,-2.348 4.196,-3.522 7.148,-3.522c1.131,0 2.14,0.291 3.027,0.872c0.887,0.581 1.456,1.311 1.708,2.19l0.094,0c0.031,-0.439 0.11,-1.342 0.235,-2.708l2.945,0c-0.738,8.652 -1.107,13.056 -1.107,13.213c0,3.251 0.934,4.876 2.803,4.876c1.695,0 3.105,-0.919 4.227,-2.756c1.123,-1.837 1.685,-4.216 1.685,-7.137c0,-4.318 -1.367,-7.843 -4.099,-10.575c-2.732,-2.733 -6.516,-4.099 -11.353,-4.099c-4.664,0 -8.519,1.633 -11.565,4.899c-3.046,3.267 -4.569,7.349 -4.569,12.249c0,4.82 1.448,8.711 4.345,11.67c2.898,2.96 6.804,4.44 11.718,4.44c3.879,0 7.192,-0.643 9.94,-1.931l0,2.921c-2.716,1.162 -6.108,1.743 -10.175,1.743c-5.716,0 -10.321,-1.724 -13.814,-5.17c-3.494,-3.447 -5.241,-7.958 -5.241,-13.532c0,-5.747 1.833,-10.513 5.5,-14.297c3.666,-3.785 8.35,-5.677 14.05,-5.677c5.338,0 9.759,1.586 13.26,4.758c3.502,3.172 5.253,7.31 5.253,12.413c0,3.737 -0.923,6.803 -2.768,9.198c-1.845,2.394 -4.094,3.592 -6.748,3.592c-3.439,0 -5.166,-1.869 -5.182,-5.606Zm-4.216,-12.813c-1.947,0 -3.521,0.926 -4.722,2.779c-1.202,1.853 -1.802,4.153 -1.802,6.901c0,1.853 0.404,3.313 1.213,4.381c0.808,1.068 1.888,1.602 3.238,1.602c1.948,0 3.49,-0.97 4.629,-2.909c1.138,-1.939 1.707,-4.511 1.707,-7.714c0,-3.36 -1.421,-5.04 -4.263,-5.04Z" style="fill:#beacc1;fill-rule:nonzero;"/><path d="M994.75,467.853l0,-33.777l9.327,0c11.903,0 17.854,5.488 17.854,16.464c0,5.214 -1.653,9.402 -4.958,12.566c-3.306,3.164 -7.73,4.747 -13.273,4.747l-8.95,0Zm3.957,-30.197l0,26.616l5.04,0c4.428,0 7.875,-1.185 10.34,-3.556c2.466,-2.371 3.698,-5.732 3.698,-10.081c0,-8.653 -4.6,-12.979 -13.802,-12.979l-5.276,0Z" style="fill:#beacc1;fill-rule:nonzero;"/><path d="M1056.51,443.733l-7.231,24.12l-4.004,0l-4.97,-17.266c-0.189,-0.659 -0.314,-1.405 -0.377,-2.237l-0.094,0c-0.047,0.565 -0.212,1.295 -0.495,2.19l-5.394,17.313l-3.863,0l-7.301,-24.12l4.051,0l4.993,18.137c0.157,0.549 0.267,1.272 0.33,2.167l0.189,0c0.047,-0.691 0.188,-1.429 0.424,-2.214l5.558,-18.09l3.533,0l4.994,18.184c0.157,0.581 0.275,1.303 0.353,2.167l0.189,0c0.031,-0.613 0.165,-1.335 0.4,-2.167l4.899,-18.184l3.816,0Z" style="fill:#beacc1;fill-rule:nonzero;"/><path d="M1069,468.418c-3.564,0 -6.41,-1.127 -8.538,-3.38c-2.128,-2.253 -3.191,-5.241 -3.191,-8.962c0,-4.052 1.107,-7.216 3.321,-9.493c2.214,-2.277 5.205,-3.415 8.974,-3.415c3.596,0 6.403,1.107 8.42,3.321c2.018,2.214 3.027,5.284 3.027,9.21c0,3.847 -1.087,6.928 -3.262,9.245c-2.175,2.316 -5.092,3.474 -8.751,3.474Zm0.283,-22c-2.481,0 -4.444,0.844 -5.888,2.532c-1.445,1.689 -2.167,4.016 -2.167,6.984c0,2.858 0.73,5.111 2.19,6.76c1.461,1.649 3.416,2.473 5.865,2.473c2.497,0 4.417,-0.808 5.759,-2.426c1.343,-1.617 2.014,-3.917 2.014,-6.901c0,-3.015 -0.671,-5.339 -2.014,-6.972c-1.342,-1.633 -3.262,-2.45 -5.759,-2.45Z" style="fill:#beacc1;fill-rule:nonzero;"/><path d="M1097.83,447.643c-0.675,-0.518 -1.648,-0.777 -2.92,-0.777c-1.649,0 -3.027,0.777 -4.134,2.332c-1.107,1.554 -1.661,3.674 -1.661,6.359l0,12.296l-3.862,0l0,-24.12l3.862,0l0,4.97l0.095,0c0.549,-1.696 1.389,-3.019 2.52,-3.969c1.131,-0.95 2.395,-1.425 3.792,-1.425c1.005,0 1.775,0.11 2.308,0.33l0,4.004Z" style="fill:#beacc1;fill-rule:nonzero;"/><path d="M1123.93,467.853l-4.828,0l-7.773,-12.932c-0.236,-0.392 -0.495,-0.95 -0.778,-1.672l-0.094,0c-0.157,0.361 -0.424,0.919 -0.801,1.672l-8.008,12.932l-4.852,0l11.306,-16.983l-10.411,-16.794l4.852,0l6.901,11.871c0.456,0.785 0.856,1.571 1.202,2.356l0.094,0c0.502,-1.037 0.942,-1.853 1.319,-2.45l7.184,-11.777l4.546,0l-10.623,16.747l10.764,17.03Z" style="fill:#beacc1;fill-rule:nonzero;"/></g></svg>