<?xml version="1.0" encoding="UTF-8" standalone="no"?>
<svg
   width="1294"
   height="993"
   viewBox="0 0 1294 993"
   version="1.1"
   id="svg65"
   sodipodi:docname="confusingdata2.svg"
   inkscape:version="1.1.1 (3bf5ae0d25, 2021-09-20)"
   xmlns:inkscape="http://www.inkscape.org/namespaces/inkscape"
   xmlns:sodipodi="http://sodipodi.sourceforge.net/DTD/sodipodi-0.dtd"
   xmlns="http://www.w3.org/2000/svg"
   xmlns:svg="http://www.w3.org/2000/svg">
  <defs
     id="defs69" />
  <sodipodi:namedview
     id="namedview67"
     pagecolor="#ffffff"
     bordercolor="#666666"
     borderopacity="1.0"
     inkscape:pageshadow="2"
     inkscape:pageopacity="0.0"
     inkscape:pagecheckerboard="0"
     showgrid="false"
     inkscape:zoom="0.81470292"
     inkscape:cx="740.76082"
     inkscape:cy="382.34796"
     inkscape:window-width="1920"
     inkscape:window-height="1017"
     inkscape:window-x="-8"
     inkscape:window-y="1072"
     inkscape:window-maximized="1"
     inkscape:current-layer="Group_390" />
  <g
     id="Group_390"
     data-name="Group 390"
     transform="translate(-30 -1769)">
    <g
       id="Group_387"
       data-name="Group 387"
       transform="translate(-27.572 -59.917)">
      <g
         id="Group_428"
         data-name="Group 428"
         transform="translate(0 24)">
        <g
           id="Group_333"
           data-name="Group 333"
           transform="translate(73.184 179.034)">
          <g
             id="Group_364"
             data-name="Group 364"
             transform="translate(59.389 1770.883)">
            <path
               id="Path_230"
               data-name="Path 230"
               d="M105.662,303.792c1.26,2.124,1.2,3.847-.707,4.144-5.919.909-79.442-.534-91.172-.706-2.926,0-3.057-2.864-1.709-5.638,9.742-20.281,27.478-51.474,42.092-68.182.878-1,2.566-1.539,4.273.747A673.471,673.471,0,0,1,105.662,303.792Zm-53.14-11.924c-.738,5.768,8.715,6.028,7.093-.255a3.587,3.587,0,0,0-7.093.255ZM54.146,278.3c0,5.3,5.277,7.605,5.158-2.928,0-5.064,0-10.129-.258-15.175-.212-4.271-2.862-4.271-3.824-2.795C53.59,259.945,54.157,274.262,54.146,278.3Zm47.412,25.919c-12.693-20.17-33.312-49.935-46-66.731-14.49,22.347-27.315,41-39.061,65.3C43.738,303.214,74.294,303.918,101.558,304.221Z"
               transform="translate(486.488 -5.515)"
               fill="#fb9d97" />
            <path
               id="Path_231"
               data-name="Path 231"
               d="M407.714,113.176c14.422,24.508,31.816,54.145,43.865,79.572,1.2,2.5.429,4.079-1.5,4.273-5.16.607-88.458-4.1-100.423-4.723-2.883-.151-3.2-3.227-1.068-6.8a527.752,527.752,0,0,1,50.766-71.929C402.42,110.034,404.445,107.621,407.714,113.176ZM394.529,178.3a4.023,4.023,0,0,0,5.13,4.424c4.273-.963,1.623-5.516,1.518-5.834C400.15,173.843,394.966,175.057,394.529,178.3Zm4.594-40.81c-.935,4.637-2.692,22.2-2.844,26.987s5.023,5.448,5.6,1.687c.942-6.41,2.371-22.5,1.391-28.483a2.146,2.146,0,0,0-4.146-.191Zm48.953,55.723c-14.061-27.315-30.022-52.882-44.272-78.459-22.115,26.3-33.312,44.008-51.411,73.332C382.052,189.649,414.616,192.256,448.077,193.216Z"
               transform="translate(-328.669 -48.312)"
               fill="#fb9d97" />
            <path
               id="Path_232"
               data-name="Path 232"
               d="M416.97,197.166c60.487.039,50.746,69.72,4.273,73.356C368.679,274.622,365.432,197.135,416.97,197.166Zm-23.695,22.392c.3,1.387,11.943,12.947,22.69,31.646a2.653,2.653,0,0,0,3.6,1.041c.545-.3,15.131-13.1,20.4-17.965,1.708-1.582-.492-5.087-2.54-3.484-6.283,4.892-12.333,10.086-18.484,15.151a195.631,195.631,0,0,0-21.157-28.833,2.671,2.671,0,0,0-4.5,2.455Z"
               transform="translate(-380.017 -17.86)"
               fill="#fb9d97" />
            <path
               id="Path_233"
               data-name="Path 233"
               d="M377.86,365.446c47.5,2.413,50.6,82.5-5.808,79.636S319.318,362.469,377.86,365.446Zm-22.5,57.435c2.732,0,15.533-11.645,18.417-14.142,3.526,3.522,11.71,12.14,14.957,14.443a2.095,2.095,0,0,0,2.82-3.035,188.063,188.063,0,0,0-14.016-14.83c3.89-3.438,12.009-10.191,14.421-14.015,1.215-1.9-1.389-3.569-3.009-2.671A194.68,194.68,0,0,0,373.866,401.6c-2.35-2.37-13.332-14.058-15.9-15.384-1.86-.963-3.759,1.518-2.929,3.2,1.133,2.247,12.82,13.355,14.957,15.58a180.43,180.43,0,0,0-14.807,12.476c-1.921,2.195-4.058,5.4.173,5.4Z"
               transform="translate(-269.631 40.825)"
               fill="#fb9d97" />
            <path
               id="Path_234"
               data-name="Path 234"
               d="M347.666,99.745c-.812,18.271-7.284,33.952-31.579,35.386a35.648,35.648,0,0,1-38.654-36.2c.194-18.589,9.507-33.689,34.186-34.657C335.268,63.354,348.578,79.255,347.666,99.745Zm-47.155,15.533,11.994-12.541c5.023,4.616,9.9,9.423,15.085,13.867a2.267,2.267,0,0,0,3.1-3.183c-2.35-3.057-11.281-11.281-14.656-14.507,2.123-2.309,11.985-11.924,12.82-14.743.147-.492,0-5.664-6.677,1-3.339,3.339-6.6,6.774-9.913,10.149a136.522,136.522,0,0,0-10.237-9.593c-3.1-2.348-6.007,1.348-2.541,4.7,3.035,2.926,6.089,5.791,9.146,8.675l-12.052,12.522a2.7,2.7,0,0,0,3.946,3.7Z"
               transform="translate(-125.345 -64.239)"
               fill="#fb9d97" />
            <path
               id="Path_235"
               data-name="Path 235"
               d="M61.837,145.731c.813-18.247,11.752-35.206,40.919-35.206,22.264,0,35.206,15.384,34.185,37.391S121.16,181.975,100.3,182.98a35.45,35.45,0,0,1-38.46-37.248Zm18.21-10.962c5.118,4.8,10.106,9.742,15.175,14.617-2.993,3.482-5.749,7.2-8.974,10.467-5.791,5.939-1.153,9.657,1.323,6.732q5.738-6.766,11.5-13.548a141.7,141.7,0,0,0,13.5,12.158c1.646,1.11,3.87-1.238,2.714-2.819a152.311,152.311,0,0,0-12.82-13.291c3.162-3.761,12.82-14.808,14.828-18.21,1.433-2.479-1.9-4.06-3.5-2.522-5.257,5.087-10.3,11.455-15.109,17.093-4.956-4.807-9.87-9.712-14.957-14.4-4.325-4.009-5.645,1.884-3.684,3.727Z"
               transform="translate(387.837 -48.089)"
               fill="#fb9d97" />
            <path
               id="Path_236"
               data-name="Path 236"
               d="M153.047,216.46c21.643,0,31.6,16.194,29.357,36.921s-12.819,27.779-31.688,27.779S120.062,270.6,120.27,251.244,133.623,216.46,153.047,216.46ZM140.6,262.227c2.125-.639,8.547-9.572,10.836-12.116,4.273,3.782,8.331,7.672,12.669,11.3,1.924,1.6,4.855-1.365,3.055-3.183-3.945-4.079-8.195-7.891-12.307-11.815a64.908,64.908,0,0,0,8.355-9.409c.213-.577,0-5.363-6.027,0-2.124,1.9-4.036,3.972-6.07,5.939l-6.58-6.092c-1.86-1.708-6.677-4.273-6.112,0,.258,2.125,6.709,7.415,9.3,9.809-1.775,2.01-9.712,10.685-9.615,13.418a2.126,2.126,0,0,0,2.068,2.181,2.094,2.094,0,0,0,.44-.035Z"
               transform="translate(258.558 -11.129)"
               fill="#fb9d97" />
            <path
               id="Path_241"
               data-name="Path 241"
               d="M98.129,335.165c-.245-3.4-17.841-27.778-21.575-27.923S52.768,330.234,53.6,333.137c.371,1.326,9.561,2.311,19.476,2.781-.624,12.819-4.141,58.715-3.5,66.4.285,3.248,26.31-.641,77.429.407-.4,9.166-1.809,29.379-1.543,36.323a2.161,2.161,0,0,0,1.971,2.351,2.194,2.194,0,0,0,2.425-1.911c.006-.054.01-.106.011-.159,2.382-15.9,6.169-167.007,4.913-180.937,13.75-.471,67.248.343,74.176-1.582,2.864-.766,3.152-97.475,2.952-108.285,69.344-1.047,138.484-2.607,208.334-2.459-.156,7.631-2.5,66.467-.625,70.021,1.214,2.285,72.714-.321,81.2-.279q-.346,34.532-.7,69.059c-3.944-.386-28.481-1.687-31.555-1.153-2.189.382-2.024,3.888,0,4.014,10.491.728,21.024.772,31.512,1.153.131,15.385.241,120.816,1.915,122.527s94.623,2.471,123.07,3.413a169.389,169.389,0,0,0,21.909,15.918c1.673.608,2.93-34.6,2.19-36.115C668.133,392.2,649.8,405.76,644.6,410.846c-13.352-.813-105.531-3.926-118.906-2.729-.549-78.142-1.276-113.98-.484-192.162l51.779,1.178c0,11.087.485,40.766,1.433,45.146a1.61,1.61,0,0,0,1.91,1.2,1.578,1.578,0,0,0,1.264-1.368c.573-4.766,0-35.6,0-44.87,0-3.035-1.565-4.125-2.6-4.273-14.96-1.2-38.118-1.476-53.763-1.624,0-7.5.131-15.342.156-23.8,0-2.5-3.834-2.124-3.924.343-.314,9.573-.53,16.559-.726,23.5q-38.87-.275-77.736,1.366c.154-5.791,1.74-65.275,1.387-68.374-.2-1.665-1.167-2.327-3.13-2.348-68.523-.857-141.016,0-209.565,2.125a142.776,142.776,0,0,0-1.188-20.449,1.78,1.78,0,0,0-2.039-1.447,1.752,1.752,0,0,0-1.511,1.6,174.133,174.133,0,0,0,0,20.449c-23.884.769-44.951,1.709-72.711,2.8-2.929.128-3.261,4.574-.313,4.443l73.325-2.8c.485,33.567.375,74.037-2.361,104.4-5.837-.407-68.611-.768-73.236,1.348-1.982.911-4.209,133.777-4.407,144.4-9.121-.792-57.838,0-73.329.107l4.282-62.837C88.475,336.427,98.2,336.191,98.129,335.165Z"
               transform="translate(-38.075 -45.106)"
               fill="#092168" />
          </g>
          <g
             id="Group_535"
             data-name="Group 535"
             transform="translate(143.789 1878.822)">
            <path
               id="Path_801"
               data-name="Path 801"
               d="M55.491,508.038c-6.371-16.911.616-26.3-1.2-41.31C51.7,445.4,26.872,434.753,24.006,413.984a37.63,37.63,0,0,1,3.421-20.655c5.12-11.183,33.685-44.716,29.268-63.57-1.406-6.013-15.566-25.9-18.048-31.686a41.782,41.782,0,0,1,1.806-33.689c4.812-10.643,19.652-30.88,20.454-30.28,16.044,15.041,28.28-19.386,5.413-20.256-6.215-.236-9.438-10.419-11.631-15.239a119.446,119.446,0,0,1-9.221-32.488C23.8,155.1,6,137.86,10.775,123.409,17.111,104.194,64.75,102.67,89.184,163.7a40.848,40.848,0,0,1-1-8.222,69.23,69.23,0,0,0-22.666-39.714c-.6-.4.2-1.2.8-.8a66.766,66.766,0,0,1,24.065,39.706,53.943,53.943,0,0,1,1.2,10.027c7.819,1.8,19.6,9.6,27.474,23.263,17.789,30.88,1.251,58.256,14.235,86.832,9.864,21.7,36.057,29.329,47.134,49.129,9.031,16.151,4.789,32.613,1.608,49.734C182.569,396.64,191.673,411,205.7,429c17.42,22.366,38.771,46.993,27.873,76.805a31.012,31.012,0,0,1-9.431,13.634c-1.2,1-3.01-.6-1.806-1.805a34.209,34.209,0,0,0,7.6-12.433c5.6-15.759,1.825-30.747-6.42-45.321-15.307-27.068-40.026-43.831-43.116-77.809-4.968,30.789,5.219,43.659,21.666,71.392,8.07,13.608,15.672,29.481,12.635,45.72-4.048,21.666-25.178,39.151-56.15,36.3-4.212-.38-8.222-1-12.433-1.8a54.242,54.242,0,0,0,15.843-17.865c21.784-38.581-19.063-66.4-26.874-99.866-.2-.6-1.2-.4-1,.2,6.416,28.577,30.409,48.111,31.485,75.2.627,15.794-10.468,33.233-20.051,38.1-18.713,9.5-35.3,1.8-34.092.6.38-.4,21.328-13.589,7.819-50.334-5.386-14.653-18.4-24.92-28.474-36.7-14.889-17.405-24.133-41.329-17.865-63.368,2.976-10.438,9.423-19.857,11.833-30.481,7.545-33.26-22.807-46.373-26.87-70.191-.43,16.307,14.592,26.95,21.256,40.109C91.9,344.317,73.751,363.517,68.9,382.26c-6.082,23.445,5.367,48.168,21.457,66.177,10.6,11.859,23.9,22.651,27.474,38.1,4.022,17.4,1.235,38.212-15.642,44.119C87.177,535.942,62.926,527.774,55.491,508.038Zm13.235-366.2a78.52,78.52,0,0,0-9.83-10.829A53.922,53.922,0,0,0,37.04,119.178c-6.416-1.6-16.569-2.775-19.853,4.812-.787,1.813,2.041,2.832,3.007,1.2C30.765,107.376,72.181,145.3,68.726,141.836Zm84.422,190.914a53.429,53.429,0,0,1,8.826,27.273.9.9,0,0,0,1.806,0c0-43.416-41.117-48.464-49.133-76.809-3.467-12.247-.62-25.045-.2-48.529a.4.4,0,1,0-.8,0c-.711,7.6-2.608,29.314-2.608,36.9C111.036,304.79,138.974,310.476,153.149,332.751Z"
               transform="translate(167.06 0)"
               fill="#092168" />
            <path
               id="Path_802"
               data-name="Path 802"
               d="M137.151,135.949a.452.452,0,0,1,.8.4c-17.717,42.527-26.84,47.24-20.252,51.737a8.088,8.088,0,0,1,3.421,3.611c2.509,6.8-8.476,35.628,10.643,41.512,6.865,2.113,11.506,3.269,24.262.4.81-.182,1.2.8.6,1.4a21.89,21.89,0,0,1-12.836,3.212c.513,2.551.8,32.062.8,34.693,0,1.6.4,3.007-.6,4.409-.2.4-.8.2-1,0-1.11-1.33-.8.76-.8-39.1-21.248-1.638-26.307-11.251-24.665-32.488.722-9.313,2.113-12.513-.2-14.239a16.014,16.014,0,0,1-4.01-3.007,5.223,5.223,0,0,1-.6-5.618,415.72,415.72,0,0,1,24.437-46.925Z"
               transform="translate(52.509 21.73)"
               fill="#092168"
               stroke="#092168"
               stroke-width="2" />
            <path
               id="Path_806"
               data-name="Path 806"
               d="M63.9,336.5c.2-.8,1.6-.8,1.4.2-.6,6.215-1.6,12.43-1.6,18.85,0,13.684,1.927,14.843,1.2,18.648a1.357,1.357,0,0,1-2.406.4C60.584,371.734,58.923,350.08,63.9,336.5Z"
               transform="translate(242.071 201.998)"
               fill="#092168"
               stroke="#092168"
               stroke-width="1" />
            <path
               id="Path_807"
               data-name="Path 807"
               d="M220.959,283.983c.38.81-.783,1.988-1.4,1.2a37.251,37.251,0,0,0-27.273-15.041,10.734,10.734,0,0,1-4.413-.38,1.342,1.342,0,0,1-.2-2.007c2.007-1.8,6.412-.954,8.826-.6a32.819,32.819,0,0,1,24.464,16.828Z"
               transform="translate(-154.428 139.61)"
               fill="#092168"
               stroke="#092168"
               stroke-width="1" />
            <path
               id="Path_808"
               data-name="Path 808"
               d="M196.091,275.287c-1.243-2.589,4.413-1.8,5.614-1.6A30.755,30.755,0,0,1,220.156,284.1c.6.8-.6,1.806-1.2,1.205C203.116,273.732,197.262,277.716,196.091,275.287Z"
               transform="translate(-170.068 145.706)"
               fill="#092168"
               stroke="#092168"
               stroke-width="1" />
            <path
               id="Path_809"
               data-name="Path 809"
               d="M222.595,291.1a34.507,34.507,0,0,0-21.054-11.023c-2.809-1.6,1.2-2.79,2.608-2.608A28.668,28.668,0,0,1,224,290.1C224.6,290.9,223.2,291.9,222.595,291.1Z"
               transform="translate(-182.736 149.338)"
               fill="#092168"
               stroke="#092168"
               stroke-width="1" />
            <path
               id="Path_810"
               data-name="Path 810"
               d="M146.4,371.288c-9.624-8.051-15.55-22.514-26.672-28.075a74.91,74.91,0,0,0-7.42-2.809.76.76,0,0,1,.2-1.4,11.544,11.544,0,0,1,6.416.6c18.245,6.355,20.906,27.117,37.1,32.69,9.183,3.159,13.707-1.87,15.444-1,.992-5.968,6.739-27.524,12.631-29.078,3.083-.813,78.409,23.244,78.409,22.86-8.6-47.894-20.754-81.655-10.826-112.893,10.457-32.914,40.36-42.907,59.757-32.887.8.411.2,1.6-.6,1.4-19.45-7.925-45.366,2.562-54.949,31.082C242.108,292.8,273.292,364.731,268.123,388.34a1.045,1.045,0,0,1-2.007,0c-1.52-5.7-1.209-12.053-3.007-21.054-10.449-1.745-77.007-23.464-79.014-21.461-7.1,8.286-15.132,44.173-8.621,59.362A48.88,48.88,0,0,0,178.082,410c.783,1.216-.8,2.2-1.806,1.4-6.181-4.862-6.519-14.444-6.42-21.457a116.8,116.8,0,0,1,1.406-15.843C163.642,380.111,153.052,376.857,146.4,371.288Z"
               transform="translate(-101.923 93.615)"
               fill="#092168"
               stroke="#092168"
               stroke-width="1" />
            <path
               id="Path_811"
               data-name="Path 811"
               d="M104.221,316.718c7.709.593,23.635,12.08,89.238,26.87,20.819,4.694,43.238,9.864,57.355-6.819.8-.8,2,.2,1.6,1.2a29.45,29.45,0,0,1-21.666,12.832,91.641,91.641,0,0,1-31.887-2.6c-10.643-2.227-21.256-4.615-31.682-7.424,2.436,13.007,1.357,4.793,6.416,36.9.441,2.8-2.406,3.611-2.809.6-1.414-7.541-5.827-36.871-4.812-37.9a556.78,556.78,0,0,1-54.546-17.649,26.554,26.554,0,0,1-7.819-4.01C102.621,317.915,103.218,316.512,104.221,316.718Z"
               transform="translate(-25.858 184.684)"
               fill="#092168"
               stroke="#092168"
               stroke-width="1" />
            <path
               id="Path_812"
               data-name="Path 812"
               d="M159.267,333.642a1.452,1.452,0,0,1-2.406,1,31.512,31.512,0,0,1-4.615-10.225c-10.6-30.029-12.331-46.449,23.666-90.443.6-.6,1.8.2,1.2,1-4.443,5.991-8.629,12.027-12.631,18.245C133.659,301.109,157.75,318.476,159.267,333.642Z"
               transform="translate(-31.371 110.001)"
               fill="#092168"
               stroke="#092168"
               stroke-width="1" />
          </g>
        </g>
      </g>
    </g>
    <rect
       id="Rectangle_101"
       data-name="Rectangle 101"
       width="78"
       height="115"
       transform="translate(30 1769)"
       fill="#fff" />
  </g>
</svg>
