<?xml version="1.0" encoding="UTF-8" standalone="no"?><!DOCTYPE svg PUBLIC "-//W3C//DTD SVG 1.1//EN" "http://www.w3.org/Graphics/SVG/1.1/DTD/svg11.dtd"><svg width="100%" height="100%" viewBox="0 0 650 450" version="1.1" xmlns="http://www.w3.org/2000/svg" xmlns:xlink="http://www.w3.org/1999/xlink" xml:space="preserve" xmlns:serif="http://www.serif.com/" style="fill-rule:evenodd;clip-rule:evenodd;stroke-linejoin:round;stroke-miterlimit:2;"><g id="Camada-1" serif:id="Camada 1"><path id="Path_230" d="M497.37,246.055c0.945,1.593 0.9,2.885 -0.53,3.108c-4.439,0.682 -59.581,-0.4 -68.379,-0.529c-2.194,-0 -2.293,-2.148 -1.282,-4.229c7.307,-15.211 20.609,-38.605 31.569,-51.136c0.659,-0.75 1.925,-1.155 3.205,0.56c12.883,16.653 24.712,34.096 35.417,52.226Zm-39.855,-8.943c-0.553,4.326 6.537,4.521 5.32,-0.191c-0.234,-1.272 -1.353,-2.203 -2.646,-2.203c-1.364,-0 -2.524,1.038 -2.674,2.394Zm1.218,-10.176c0,3.975 3.958,5.704 3.869,-2.196c-0,-3.798 -0,-7.597 -0.194,-11.381c-0.159,-3.203 -2.146,-3.203 -2.868,-2.096c-1.224,1.907 -0.798,12.645 -0.807,15.673Zm35.559,19.439c-9.519,-15.127 -24.984,-37.451 -34.5,-50.048c-10.867,16.76 -20.486,30.75 -29.295,48.975c20.43,0.32 43.347,0.848 63.795,1.075l0,-0.002Z" style="fill:#fb9d97;fill-rule:nonzero;"/><path id="Path_231" d="M112.542,70.995c10.816,18.381 23.862,40.609 32.898,59.679c0.9,1.875 0.322,3.06 -1.125,3.205c-3.87,0.455 -66.343,-3.075 -75.317,-3.542c-2.162,-0.113 -2.4,-2.42 -0.801,-5.1c11.167,-19.011 23.903,-37.056 38.075,-53.947c2.299,-2.651 3.818,-4.461 6.27,-0.295Zm-9.889,48.843c-0.02,0.141 -0.03,0.284 -0.03,0.426c-0,1.656 1.362,3.018 3.017,3.018c0.291,-0 0.581,-0.043 0.86,-0.126c3.205,-0.722 1.218,-4.137 1.139,-4.375c-0.77,-2.285 -4.658,-1.375 -4.986,1.057Zm3.445,-30.607c-0.701,3.478 -2.019,16.65 -2.133,20.24c-0.114,3.59 3.768,4.086 4.2,1.265c0.707,-4.807 1.779,-16.875 1.044,-21.362c-0.159,-0.739 -0.818,-1.271 -1.574,-1.271c-0.702,-0 -1.326,0.458 -1.536,1.128l-0.001,-0Zm36.715,41.792c-10.546,-20.486 -22.516,-39.661 -33.204,-58.844c-16.586,19.725 -24.984,33.006 -38.558,54.999c22.244,1.172 46.667,3.127 71.763,3.847l-0.001,-0.002Z" style="fill:#fb9d97;fill-rule:nonzero;"/><path id="Path_232" d="M80.973,156.827c45.365,0.029 38.059,52.29 3.204,55.017c-39.423,3.075 -41.858,-55.04 -3.204,-55.017Zm-17.772,16.794c0.225,1.04 8.958,9.71 17.018,23.734c0.527,0.954 1.745,1.306 2.7,0.781c0.409,-0.225 11.348,-9.825 15.3,-13.474c1.281,-1.186 -0.369,-3.815 -1.905,-2.613c-4.712,3.669 -9.25,7.565 -13.863,11.364c-4.618,-7.678 -9.93,-14.916 -15.868,-21.625c-0.376,-0.376 -0.886,-0.588 -1.417,-0.588c-1.099,0 -2.004,0.904 -2.004,2.003c0,0.143 0.016,0.286 0.046,0.426l-0.007,-0.008Z" style="fill:#fb9d97;fill-rule:nonzero;"/><path id="Path_241" d="M98.298,239.892c-0.183,-2.55 -13.38,-20.834 -16.181,-20.943c-2.8,-0.108 -17.839,17.244 -17.215,19.422c0.278,0.994 7.17,1.733 14.607,2.085c-0.468,9.615 -3.106,44.037 -2.625,49.8c0.213,2.436 19.732,-0.48 58.071,0.306c-0.3,6.874 -1.356,22.034 -1.157,27.242c-0.004,0.049 -0.007,0.099 -0.007,0.148c0,0.838 0.65,1.545 1.485,1.615c0.891,0.101 1.709,-0.543 1.819,-1.433c0.005,-0.041 0.008,-0.08 0.008,-0.119c1.787,-11.925 4.627,-125.256 3.685,-135.703c10.313,-0.353 50.436,0.257 55.632,-1.187c2.148,-0.574 2.364,-73.106 2.214,-81.213c52.008,-0.786 103.863,-1.956 156.251,-1.845c-0.117,5.724 -1.875,49.851 -0.469,52.516c0.91,1.714 54.535,-0.241 60.9,-0.209c-0.173,17.266 -0.348,34.531 -0.525,51.794c-2.958,-0.289 -21.361,-1.265 -23.666,-0.865c-1.642,0.287 -1.518,2.916 -0,3.011c7.868,0.546 15.768,0.579 23.634,0.865c0.098,11.538 0.18,90.612 1.436,91.895c1.255,1.283 70.967,1.853 92.302,2.56c5.15,4.411 10.645,8.404 16.432,11.938c1.255,0.456 2.198,-25.95 1.643,-27.086c-0.771,-1.818 -14.52,8.352 -18.42,12.166c-10.014,-0.609 -79.149,-2.944 -89.18,-2.046c-0.412,-58.607 -0.957,-85.485 -0.363,-144.122l38.834,0.884c0,8.315 0.364,30.574 1.075,33.859c0.151,0.636 0.794,1.04 1.433,0.9c0.504,-0.099 0.889,-0.515 0.948,-1.026c0.429,-3.574 -0,-26.7 -0,-33.652c-0,-2.277 -1.174,-3.094 -1.95,-3.205c-11.22,-0.9 -28.589,-1.107 -40.323,-1.218c0,-5.625 0.099,-11.507 0.117,-17.85c0,-1.875 -2.875,-1.593 -2.943,0.257c-0.235,7.18 -0.397,12.419 -0.544,17.625c-19.435,-0.137 -38.869,0.204 -58.302,1.025c0.115,-4.344 1.305,-48.957 1.04,-51.281c-0.15,-1.249 -0.875,-1.745 -2.347,-1.761c-51.393,-0.643 -105.762,0 -157.174,1.594c0.07,-5.127 -0.227,-10.253 -0.891,-15.337c-0.127,-0.714 -0.813,-1.202 -1.529,-1.085c-0.611,0.083 -1.086,0.585 -1.134,1.2c-0.3,5.108 -0.3,10.229 0,15.337c-17.913,0.576 -33.713,1.281 -54.533,2.1c-2.197,0.096 -2.446,3.43 -0.235,3.332l54.994,-2.1c0.364,25.175 0.281,55.528 -1.771,78.3c-4.377,-0.305 -51.458,-0.576 -54.927,1.011c-1.486,0.683 -3.156,100.333 -3.305,108.3c-6.841,-0.594 -43.378,-0 -54.997,0.08l3.212,-47.128c7.701,0.193 14.995,0.016 14.941,-0.753Z" style="fill:#092168;fill-rule:nonzero;"/><path id="Path_2411" serif:id="Path_241" d="M98.298,239.892c-0.183,-2.55 -13.38,-20.834 -16.181,-20.943c-2.8,-0.108 -17.839,17.244 -17.215,19.422c0.278,0.994 7.17,1.733 14.607,2.085c-0.468,9.615 -3.106,44.037 -2.625,49.8c0.213,2.436 19.732,-0.48 58.071,0.306c-0.3,6.874 -1.356,22.034 -1.157,27.242c-0.004,0.049 0.73,1.818 0.73,1.867c-0,0.838 35.333,3.068 35.628,-0.104c0.083,-0.893 -33.171,-0.543 -33.061,-1.433c0.005,-0.041 0.008,-0.08 0.008,-0.119c1.787,-11.925 4.627,-125.256 3.685,-135.703c10.313,-0.353 50.436,0.257 55.632,-1.187c2.148,-0.574 2.364,-73.106 2.214,-81.213c52.008,-0.786 103.863,-1.956 156.251,-1.845c-0.117,5.724 -1.875,49.851 -0.469,52.516c0.91,1.714 54.535,-0.241 60.9,-0.209c-0.173,17.266 -0.348,34.531 -0.525,51.794c-2.958,-0.289 -21.361,-1.265 -23.666,-0.865c-1.642,0.287 -1.518,2.916 -0,3.011c7.868,0.546 15.768,0.579 23.634,0.865c0.098,11.538 0.18,90.612 1.436,91.895c1.255,1.283 70.967,1.853 92.302,2.56c5.15,4.411 10.645,8.404 16.432,11.938c1.255,0.456 2.198,-25.95 1.643,-27.086c-0.771,-1.818 -14.52,8.352 -18.42,12.166c-10.014,-0.609 -79.149,-2.944 -89.18,-2.046c-0.412,-58.607 -0.957,-85.485 -0.363,-144.122l38.834,0.884c0,8.315 0.364,30.574 1.075,33.859c0.151,0.636 0.794,1.04 1.433,0.9c0.504,-0.099 0.889,-0.515 0.948,-1.026c0.429,-3.574 -0,-26.7 -0,-33.652c-0,-2.277 -1.174,-3.094 -1.95,-3.205c-11.22,-0.9 -28.589,-1.107 -40.323,-1.218c0,-5.625 0.099,-11.507 0.117,-17.85c0,-1.875 -2.875,-1.593 -2.943,0.257c-0.235,7.18 -0.397,12.419 -0.544,17.625c-19.435,-0.137 -38.869,0.204 -58.302,1.025c0.115,-4.344 1.305,-48.957 1.04,-51.281c-0.15,-1.249 -0.875,-1.745 -2.347,-1.761c-51.393,-0.643 -105.762,0 -157.174,1.594c0.07,-5.127 -0.227,-10.253 -0.891,-15.337c-0.127,-0.714 -0.813,-1.202 -1.529,-1.085c-0.611,0.083 -1.086,0.585 -1.134,1.2c-0.3,5.108 -0.3,10.229 0,15.337c-17.913,0.576 -33.713,1.281 -54.533,2.1c-2.197,0.096 -2.446,3.43 -0.235,3.332l54.994,-2.1c0.364,25.175 0.281,55.528 -1.771,78.3c-4.377,-0.305 -51.458,-0.576 -54.927,1.011c-1.486,0.683 -3.156,100.333 -3.305,108.3c-6.841,-0.594 -43.378,-0 -54.997,0.08l3.212,-47.128c7.701,0.193 14.995,0.016 14.941,-0.753Z" style="fill:#092168;fill-rule:nonzero;"/><path id="Path_2412" serif:id="Path_241" d="M180.302,61.015c0.154,2.552 13.133,20.991 15.932,21.133c2.799,0.142 18.043,-17.031 17.445,-19.216c-0.267,-0.998 -7.15,-1.818 -14.582,-2.259c-1.895,-0.112 -3.845,-0.234 -3.845,-0.234c-7.699,-0.284 -14.994,-0.194 -14.95,0.576Z" style="fill:#092168;fill-rule:nonzero;"/><path id="Path_2413" serif:id="Path_241" d="M401.586,107.759c0.153,2.552 13.133,20.99 15.932,21.132c2.799,0.142 18.042,-17.031 17.444,-19.216c-0.266,-0.997 -7.15,-1.818 -14.581,-2.258c-1.896,-0.113 -3.846,-0.235 -3.846,-0.235c-7.698,-0.284 -14.994,-0.193 -14.949,0.577Z" style="fill:#092168;fill-rule:nonzero;"/><path id="Path_2414" serif:id="Path_241" d="M369.987,219.779c2.54,-0.297 20.217,-14.296 20.2,-17.099c-0.016,-2.802 -18.022,-17.053 -20.169,-16.332c-0.981,0.322 -1.412,7.241 -1.433,14.685c-0.005,1.899 -0.017,3.853 -0.017,3.853c0.151,7.702 0.653,14.981 1.419,14.893Z" style="fill:#092168;fill-rule:nonzero;"/><path id="Path_2415" serif:id="Path_241" d="M185.763,302.945c-2.542,0.273 -20.354,14.101 -20.364,16.903c-0.011,2.803 17.856,17.227 20.01,16.527c0.984,-0.313 1.482,-7.227 1.575,-14.671c0.023,-1.898 0.054,-3.853 0.054,-3.853c-0.076,-7.703 -0.508,-14.986 -1.275,-14.906Z" style="fill:#092168;fill-rule:nonzero;"/><g><path d="M148.565,375.127c1.74,-0 3.32,0.19 4.74,0.57c1.42,0.38 2.64,0.975 3.66,1.785c1.02,0.81 1.805,1.825 2.355,3.045c0.55,1.22 0.825,2.67 0.825,4.35c-0,1.46 -0.245,2.865 -0.735,4.215c-0.49,1.35 -1.23,2.555 -2.22,3.615c-0.99,1.06 -2.23,1.9 -3.72,2.52c-1.49,0.62 -3.225,0.93 -5.205,0.93l-7.77,-0l0.06,-0.99c0.76,-0.04 1.29,-0.215 1.59,-0.525c0.3,-0.31 0.48,-0.74 0.54,-1.29c0.06,-0.55 0.1,-1.175 0.12,-1.875l0.72,-12.96c0.04,-0.4 0.075,-0.785 0.105,-1.155c0.03,-0.37 0.065,-0.705 0.105,-1.005c-0.38,0.02 -0.75,0.04 -1.11,0.06c-0.36,0.02 -0.73,0.04 -1.11,0.06l0.09,-1.32l6.96,-0.03Zm-0.18,1.11c-0.76,-0 -1.305,0.12 -1.635,0.36c-0.33,0.24 -0.54,0.61 -0.63,1.11c-0.09,0.5 -0.155,1.14 -0.195,1.92l-0.69,12.99c-0.02,0.54 -0.05,1 -0.09,1.38c-0.04,0.38 -0.08,0.7 -0.12,0.96c0.44,0.02 0.84,0.035 1.2,0.045c0.36,0.01 0.705,0.015 1.035,0.015l0.975,-0c1.82,-0 3.41,-0.455 4.77,-1.365c1.36,-0.91 2.425,-2.14 3.195,-3.69c0.77,-1.55 1.155,-3.285 1.155,-5.205c-0,-2.58 -0.73,-4.645 -2.19,-6.195c-1.46,-1.55 -3.72,-2.325 -6.78,-2.325Z" style="fill:#fff;fill-rule:nonzero;"/><path d="M171.305,380.827c0.6,-0 1.26,0.045 1.98,0.135c0.72,0.09 1.4,0.215 2.04,0.375c-0.16,1.2 -0.315,2.395 -0.465,3.585c-0.15,1.19 -0.29,2.32 -0.42,3.39c-0.13,1.07 -0.235,2.03 -0.315,2.88c-0.08,0.85 -0.12,1.515 -0.12,1.995c-0,0.4 0.03,0.8 0.09,1.2c0.06,0.4 0.31,0.6 0.75,0.6c0.34,-0 0.715,-0.22 1.125,-0.66c0.41,-0.44 0.765,-1.19 1.065,-2.25l0.84,0.18c-0.06,0.36 -0.185,0.775 -0.375,1.245c-0.19,0.47 -0.445,0.935 -0.765,1.395c-0.32,0.46 -0.71,0.84 -1.17,1.14c-0.46,0.3 -0.99,0.45 -1.59,0.45c-0.8,-0 -1.37,-0.25 -1.71,-0.75c-0.34,-0.5 -0.51,-1.15 -0.51,-1.95c-0,-0.58 0.055,-1.21 0.165,-1.89c0.11,-0.68 0.235,-1.39 0.375,-2.13l-0.09,-0c-0.48,1.48 -0.975,2.665 -1.485,3.555c-0.51,0.89 -1.02,1.565 -1.53,2.025c-0.51,0.46 -1.005,0.765 -1.485,0.915c-0.48,0.15 -0.93,0.225 -1.35,0.225c-1.08,-0 -1.985,-0.4 -2.715,-1.2c-0.73,-0.8 -1.095,-2.14 -1.095,-4.02c-0,-1.4 0.18,-2.73 0.54,-3.99c0.36,-1.26 0.905,-2.375 1.635,-3.345c0.73,-0.97 1.645,-1.73 2.745,-2.28c1.1,-0.55 2.38,-0.825 3.84,-0.825Zm-0.93,1.08c-0.9,-0 -1.685,0.25 -2.355,0.75c-0.67,0.5 -1.225,1.175 -1.665,2.025c-0.44,0.85 -0.765,1.8 -0.975,2.85c-0.21,1.05 -0.315,2.125 -0.315,3.225c-0,1.28 0.14,2.335 0.42,3.165c0.28,0.83 0.79,1.245 1.53,1.245c0.54,-0 1.085,-0.27 1.635,-0.81c0.55,-0.54 1.065,-1.265 1.545,-2.175c0.48,-0.91 0.91,-1.93 1.29,-3.06c0.38,-1.13 0.68,-2.285 0.9,-3.465c0.22,-1.18 0.33,-2.31 0.33,-3.39c-0.3,-0.12 -0.65,-0.21 -1.05,-0.27c-0.4,-0.06 -0.83,-0.09 -1.29,-0.09Z" style="fill:#fff;fill-rule:nonzero;"/><path d="M184.385,376.927l-0.54,4.23l4.77,-0l-0.09,1.14l-4.8,0.06c-0.08,0.84 -0.175,1.705 -0.285,2.595c-0.11,0.89 -0.205,1.775 -0.285,2.655c-0.08,0.88 -0.15,1.725 -0.21,2.535c-0.06,0.81 -0.09,1.545 -0.09,2.205c-0,0.38 0.025,0.775 0.075,1.185c0.05,0.41 0.175,0.75 0.375,1.02c0.2,0.27 0.52,0.405 0.96,0.405c0.2,-0 0.445,-0.04 0.735,-0.12c0.29,-0.08 0.615,-0.27 0.975,-0.57c0.36,-0.3 0.73,-0.77 1.11,-1.41l0.78,0.51c-0.58,1.02 -1.205,1.795 -1.875,2.325c-0.67,0.53 -1.485,0.795 -2.445,0.795c-0.78,-0 -1.395,-0.165 -1.845,-0.495c-0.45,-0.33 -0.775,-0.765 -0.975,-1.305c-0.2,-0.54 -0.3,-1.12 -0.3,-1.74c-0,-0.76 0.03,-1.685 0.09,-2.775c0.06,-1.09 0.15,-2.3 0.27,-3.63c0.12,-1.33 0.26,-2.715 0.42,-4.155l-2.67,0.03l0.09,-1.26c1.38,-0 2.4,-0.37 3.06,-1.11c0.66,-0.74 1.18,-1.78 1.56,-3.12l1.14,-0Z" style="fill:#fff;fill-rule:nonzero;"/><path d="M198.665,380.827c0.6,-0 1.26,0.045 1.98,0.135c0.72,0.09 1.4,0.215 2.04,0.375c-0.16,1.2 -0.315,2.395 -0.465,3.585c-0.15,1.19 -0.29,2.32 -0.42,3.39c-0.13,1.07 -0.235,2.03 -0.315,2.88c-0.08,0.85 -0.12,1.515 -0.12,1.995c-0,0.4 0.03,0.8 0.09,1.2c0.06,0.4 0.31,0.6 0.75,0.6c0.34,-0 0.715,-0.22 1.125,-0.66c0.41,-0.44 0.765,-1.19 1.065,-2.25l0.84,0.18c-0.06,0.36 -0.185,0.775 -0.375,1.245c-0.19,0.47 -0.445,0.935 -0.765,1.395c-0.32,0.46 -0.71,0.84 -1.17,1.14c-0.46,0.3 -0.99,0.45 -1.59,0.45c-0.8,-0 -1.37,-0.25 -1.71,-0.75c-0.34,-0.5 -0.51,-1.15 -0.51,-1.95c-0,-0.58 0.055,-1.21 0.165,-1.89c0.11,-0.68 0.235,-1.39 0.375,-2.13l-0.09,-0c-0.48,1.48 -0.975,2.665 -1.485,3.555c-0.51,0.89 -1.02,1.565 -1.53,2.025c-0.51,0.46 -1.005,0.765 -1.485,0.915c-0.48,0.15 -0.93,0.225 -1.35,0.225c-1.08,-0 -1.985,-0.4 -2.715,-1.2c-0.73,-0.8 -1.095,-2.14 -1.095,-4.02c-0,-1.4 0.18,-2.73 0.54,-3.99c0.36,-1.26 0.905,-2.375 1.635,-3.345c0.73,-0.97 1.645,-1.73 2.745,-2.28c1.1,-0.55 2.38,-0.825 3.84,-0.825Zm-0.93,1.08c-0.9,-0 -1.685,0.25 -2.355,0.75c-0.67,0.5 -1.225,1.175 -1.665,2.025c-0.44,0.85 -0.765,1.8 -0.975,2.85c-0.21,1.05 -0.315,2.125 -0.315,3.225c-0,1.28 0.14,2.335 0.42,3.165c0.28,0.83 0.79,1.245 1.53,1.245c0.54,-0 1.085,-0.27 1.635,-0.81c0.55,-0.54 1.065,-1.265 1.545,-2.175c0.48,-0.91 0.91,-1.93 1.29,-3.06c0.38,-1.13 0.68,-2.285 0.9,-3.465c0.22,-1.18 0.33,-2.31 0.33,-3.39c-0.3,-0.12 -0.65,-0.21 -1.05,-0.27c-0.4,-0.06 -0.83,-0.09 -1.29,-0.09Z" style="fill:#fff;fill-rule:nonzero;"/><path d="M221.225,396.487l-4.53,-15.99c-0.3,-1.06 -0.535,-1.895 -0.705,-2.505c-0.17,-0.61 -0.285,-1.135 -0.345,-1.575c-0.28,0.02 -0.56,0.03 -0.84,0.03c-0.28,-0 -0.56,0.01 -0.84,0.03l0.06,-1.32l7.2,-0l-0.06,0.99c-1.16,0.06 -1.87,0.32 -2.13,0.78c-0.26,0.46 -0.26,1.29 -0,2.49l1.92,6.99c0.24,0.9 0.48,1.755 0.72,2.565c0.24,0.81 0.49,1.685 0.75,2.625l0.06,-0c0.12,-0.34 0.255,-0.705 0.405,-1.095c0.15,-0.39 0.295,-0.775 0.435,-1.155c0.14,-0.38 0.27,-0.735 0.39,-1.065c0.12,-0.33 0.22,-0.595 0.3,-0.795l4.56,-12.39l0.81,-0l3.12,11.31c0.26,0.9 0.515,1.8 0.765,2.7c0.25,0.9 0.495,1.82 0.735,2.76l0.06,-0c0.22,-0.58 0.465,-1.205 0.735,-1.875c0.27,-0.67 0.535,-1.355 0.795,-2.055c0.54,-1.5 1,-2.75 1.38,-3.75c0.38,-1 0.695,-1.83 0.945,-2.49c0.25,-0.66 0.47,-1.23 0.66,-1.71c0.19,-0.48 0.375,-0.95 0.555,-1.41c0.12,-0.34 0.27,-0.705 0.45,-1.095c0.18,-0.39 0.37,-0.755 0.57,-1.095c-0.4,0.02 -0.8,0.035 -1.2,0.045c-0.4,0.01 -0.8,0.025 -1.2,0.045l0.06,-1.32l6.09,-0l-0.06,0.99c-0.5,0.06 -0.925,0.155 -1.275,0.285c-0.35,0.13 -0.655,0.345 -0.915,0.645c-0.26,0.3 -0.525,0.73 -0.795,1.29c-0.27,0.56 -0.585,1.3 -0.945,2.22l-6.24,15.9l-0.78,-0l-3.42,-11.82c-0.3,-1.04 -0.535,-1.89 -0.705,-2.55c-0.17,-0.66 -0.335,-1.29 -0.495,-1.89l-0.12,-0c-0.26,0.66 -0.51,1.32 -0.75,1.98c-0.24,0.66 -0.49,1.32 -0.75,1.98l-4.65,12.3l-0.78,-0Z" style="fill:#fff;fill-rule:nonzero;"/><path d="M249.635,380.827c1.08,-0 2.05,0.255 2.91,0.765c0.86,0.51 1.54,1.255 2.04,2.235c0.5,0.98 0.75,2.17 0.75,3.57c-0,1.6 -0.29,3.095 -0.87,4.485c-0.58,1.39 -1.415,2.505 -2.505,3.345c-1.09,0.84 -2.415,1.26 -3.975,1.26c-1.32,-0 -2.405,-0.3 -3.255,-0.9c-0.85,-0.6 -1.48,-1.41 -1.89,-2.43c-0.41,-1.02 -0.615,-2.15 -0.615,-3.39c-0,-1.62 0.295,-3.11 0.885,-4.47c0.59,-1.36 1.44,-2.445 2.55,-3.255c1.11,-0.81 2.435,-1.215 3.975,-1.215Zm-0.45,1.11c-0.88,-0.02 -1.64,0.275 -2.28,0.885c-0.64,0.61 -1.135,1.435 -1.485,2.475c-0.35,1.04 -0.535,2.2 -0.555,3.48c-0.02,0.68 0.02,1.4 0.12,2.16c0.1,0.76 0.275,1.47 0.525,2.13c0.25,0.66 0.6,1.2 1.05,1.62c0.45,0.42 1.015,0.64 1.695,0.66c0.8,0.02 1.48,-0.195 2.04,-0.645c0.56,-0.45 1.01,-1.035 1.35,-1.755c0.34,-0.72 0.595,-1.49 0.765,-2.31c0.17,-0.82 0.265,-1.59 0.285,-2.31c0.02,-0.7 -0.015,-1.42 -0.105,-2.16c-0.09,-0.74 -0.265,-1.43 -0.525,-2.07c-0.26,-0.64 -0.62,-1.155 -1.08,-1.545c-0.46,-0.39 -1.06,-0.595 -1.8,-0.615Z" style="fill:#fff;fill-rule:nonzero;"/><path d="M259.715,396.157c-0.02,-0.14 -0.03,-0.265 -0.03,-0.375l-0,-0.405c-0,-0.34 0.01,-0.745 0.03,-1.215c0.02,-0.47 0.065,-1.095 0.135,-1.875c0.07,-0.78 0.175,-1.8 0.315,-3.06c0.14,-1.3 0.25,-2.28 0.33,-2.94c0.08,-0.66 0.14,-1.145 0.18,-1.455c0.04,-0.31 0.06,-0.565 0.06,-0.765c0.02,-0.4 -0.005,-0.79 -0.075,-1.17c-0.07,-0.38 -0.315,-0.57 -0.735,-0.57c-0.32,-0 -0.69,0.22 -1.11,0.66c-0.42,0.44 -0.78,1.19 -1.08,2.25l-0.84,-0.18c0.06,-0.36 0.185,-0.775 0.375,-1.245c0.19,-0.47 0.445,-0.935 0.765,-1.395c0.32,-0.46 0.71,-0.84 1.17,-1.14c0.46,-0.3 0.99,-0.45 1.59,-0.45c0.9,-0 1.5,0.31 1.8,0.93c0.3,0.62 0.43,1.45 0.39,2.49c-0.02,0.44 -0.075,0.925 -0.165,1.455c-0.09,0.53 -0.185,1.085 -0.285,1.665l0.09,-0c0.58,-1.74 1.185,-3.08 1.815,-4.02c0.63,-0.94 1.27,-1.595 1.92,-1.965c0.65,-0.37 1.295,-0.555 1.935,-0.555c0.6,-0 1.1,0.155 1.5,0.465c0.4,0.31 0.6,0.735 0.6,1.275c-0,0.36 -0.125,0.69 -0.375,0.99c-0.25,0.3 -0.585,0.45 -1.005,0.45c-0.36,-0 -0.67,-0.11 -0.93,-0.33c-0.26,-0.22 -0.41,-0.53 -0.45,-0.93c-0.56,-0.12 -1.105,0.06 -1.635,0.54c-0.53,0.48 -1.03,1.165 -1.5,2.055c-0.47,0.89 -0.88,1.885 -1.23,2.985c-0.35,1.1 -0.625,2.22 -0.825,3.36c-0.2,1.14 -0.3,2.2 -0.3,3.18c-0,0.3 0.005,0.525 0.015,0.675c0.01,0.15 0.025,0.355 0.045,0.615l-2.49,-0Z" style="fill:#fff;fill-rule:nonzero;"/><path d="M281.735,396.487c-0.76,-0 -1.395,-0.31 -1.905,-0.93c-0.51,-0.62 -1.025,-1.62 -1.545,-3c-0.38,-1 -0.72,-1.72 -1.02,-2.16c-0.3,-0.44 -0.74,-0.67 -1.32,-0.69c-0.14,-0 -0.27,0.005 -0.39,0.015c-0.12,0.01 -0.25,0.015 -0.39,0.015c-0.22,0.82 -0.395,1.645 -0.525,2.475c-0.13,0.83 -0.195,1.615 -0.195,2.355c-0,0.3 0.005,0.575 0.015,0.825c0.01,0.25 0.025,0.505 0.045,0.765l-2.46,-0c-0.02,-0.14 -0.03,-0.265 -0.03,-0.375l-0,-0.405c-0,-0.56 0.03,-1.395 0.09,-2.505c0.06,-1.11 0.14,-2.375 0.24,-3.795c0.1,-1.42 0.21,-2.88 0.33,-4.38c0.12,-1.5 0.255,-2.925 0.405,-4.275c0.15,-1.35 0.295,-2.495 0.435,-3.435c0.08,-0.52 0.135,-0.85 0.165,-0.99c0.03,-0.14 0.065,-0.34 0.105,-0.6c-0.34,0.02 -0.69,0.04 -1.05,0.06c-0.36,0.02 -0.71,0.04 -1.05,0.06l0.12,-1.2c0.88,-0 1.565,-0.04 2.055,-0.12c0.49,-0.08 0.855,-0.18 1.095,-0.3c0.24,-0.12 0.44,-0.25 0.6,-0.39l0.87,-0c-0.1,0.5 -0.195,1.06 -0.285,1.68c-0.09,0.62 -0.175,1.23 -0.255,1.83c-0.08,0.6 -0.15,1.13 -0.21,1.59c-0.18,1.4 -0.345,2.86 -0.495,4.38c-0.15,1.52 -0.275,3.03 -0.375,4.53l0.09,-0c0.6,-1.78 1.215,-3.15 1.845,-4.11c0.63,-0.96 1.285,-1.63 1.965,-2.01c0.68,-0.38 1.37,-0.57 2.07,-0.57c0.7,-0 1.26,0.155 1.68,0.465c0.42,0.31 0.73,0.715 0.93,1.215c0.2,0.5 0.3,1.02 0.3,1.56c-0,0.7 -0.21,1.43 -0.63,2.19c-0.42,0.76 -1.055,1.435 -1.905,2.025c-0.85,0.59 -1.935,1.005 -3.255,1.245l-0,0.03c0.7,0.02 1.235,0.185 1.605,0.495c0.37,0.31 0.715,0.845 1.035,1.605c0.22,0.46 0.435,0.93 0.645,1.41c0.21,0.48 0.435,0.88 0.675,1.2c0.24,0.32 0.5,0.5 0.78,0.54c0.34,0.02 0.63,-0.1 0.87,-0.36c0.24,-0.26 0.45,-0.76 0.63,-1.5l0.84,0.15c-0.12,0.56 -0.315,1.1 -0.585,1.62c-0.27,0.52 -0.625,0.945 -1.065,1.275c-0.44,0.33 -0.97,0.495 -1.59,0.495Zm-6.33,-7.62c1.9,-0 3.35,-0.41 4.35,-1.23c1,-0.82 1.5,-1.99 1.5,-3.51c-0,-0.26 -0.03,-0.54 -0.09,-0.84c-0.06,-0.3 -0.19,-0.56 -0.39,-0.78c-0.2,-0.22 -0.51,-0.31 -0.93,-0.27c-0.54,0.04 -1.085,0.37 -1.635,0.99c-0.55,0.62 -1.065,1.425 -1.545,2.415c-0.48,0.99 -0.9,2.065 -1.26,3.225Z" style="fill:#fff;fill-rule:nonzero;"/><path d="M292.235,373.507c-0.06,0.5 -0.145,1.06 -0.255,1.68c-0.11,0.62 -0.21,1.23 -0.3,1.83c-0.09,0.6 -0.165,1.13 -0.225,1.59c-0.12,0.84 -0.24,1.795 -0.36,2.865c-0.12,1.07 -0.24,2.18 -0.36,3.33c-0.12,1.15 -0.225,2.275 -0.315,3.375c-0.09,1.1 -0.165,2.105 -0.225,3.015c-0.06,0.91 -0.09,1.655 -0.09,2.235c-0,0.38 0.04,0.735 0.12,1.065c0.08,0.33 0.31,0.495 0.69,0.495c0.34,-0 0.715,-0.215 1.125,-0.645c0.41,-0.43 0.765,-1.185 1.065,-2.265l0.84,0.21c-0.06,0.34 -0.185,0.75 -0.375,1.23c-0.19,0.48 -0.445,0.945 -0.765,1.395c-0.32,0.45 -0.705,0.825 -1.155,1.125c-0.45,0.3 -0.975,0.45 -1.575,0.45c-0.82,-0 -1.42,-0.205 -1.8,-0.615c-0.38,-0.41 -0.58,-1.015 -0.6,-1.815c-0.02,-0.5 0.005,-1.24 0.075,-2.22c0.07,-0.98 0.16,-2.095 0.27,-3.345c0.11,-1.25 0.235,-2.56 0.375,-3.93c0.14,-1.37 0.29,-2.705 0.45,-4.005c0.16,-1.3 0.31,-2.48 0.45,-3.54c0.1,-0.54 0.165,-0.895 0.195,-1.065c0.03,-0.17 0.055,-0.355 0.075,-0.555c-0.36,0.02 -0.715,0.04 -1.065,0.06c-0.35,0.02 -0.705,0.04 -1.065,0.06l0.15,-1.2c0.88,-0 1.565,-0.04 2.055,-0.12c0.49,-0.08 0.865,-0.18 1.125,-0.3c0.26,-0.12 0.47,-0.25 0.63,-0.39l0.84,-0Z" style="fill:#fff;fill-rule:nonzero;"/><path d="M302.885,380.827c1.08,-0 2.05,0.255 2.91,0.765c0.86,0.51 1.54,1.255 2.04,2.235c0.5,0.98 0.75,2.17 0.75,3.57c-0,1.6 -0.29,3.095 -0.87,4.485c-0.58,1.39 -1.415,2.505 -2.505,3.345c-1.09,0.84 -2.415,1.26 -3.975,1.26c-1.32,-0 -2.405,-0.3 -3.255,-0.9c-0.85,-0.6 -1.48,-1.41 -1.89,-2.43c-0.41,-1.02 -0.615,-2.15 -0.615,-3.39c-0,-1.62 0.295,-3.11 0.885,-4.47c0.59,-1.36 1.44,-2.445 2.55,-3.255c1.11,-0.81 2.435,-1.215 3.975,-1.215Zm-0.45,1.11c-0.88,-0.02 -1.64,0.275 -2.28,0.885c-0.64,0.61 -1.135,1.435 -1.485,2.475c-0.35,1.04 -0.535,2.2 -0.555,3.48c-0.02,0.68 0.02,1.4 0.12,2.16c0.1,0.76 0.275,1.47 0.525,2.13c0.25,0.66 0.6,1.2 1.05,1.62c0.45,0.42 1.015,0.64 1.695,0.66c0.8,0.02 1.48,-0.195 2.04,-0.645c0.56,-0.45 1.01,-1.035 1.35,-1.755c0.34,-0.72 0.595,-1.49 0.765,-2.31c0.17,-0.82 0.265,-1.59 0.285,-2.31c0.02,-0.7 -0.015,-1.42 -0.105,-2.16c-0.09,-0.74 -0.265,-1.43 -0.525,-2.07c-0.26,-0.64 -0.62,-1.155 -1.08,-1.545c-0.46,-0.39 -1.06,-0.595 -1.8,-0.615Z" style="fill:#fff;fill-rule:nonzero;"/><path d="M319.805,380.827c0.6,-0 1.26,0.045 1.98,0.135c0.72,0.09 1.4,0.215 2.04,0.375c-0.16,1.2 -0.315,2.395 -0.465,3.585c-0.15,1.19 -0.29,2.32 -0.42,3.39c-0.13,1.07 -0.235,2.03 -0.315,2.88c-0.08,0.85 -0.12,1.515 -0.12,1.995c-0,0.4 0.03,0.8 0.09,1.2c0.06,0.4 0.31,0.6 0.75,0.6c0.34,-0 0.715,-0.22 1.125,-0.66c0.41,-0.44 0.765,-1.19 1.065,-2.25l0.84,0.18c-0.06,0.36 -0.185,0.775 -0.375,1.245c-0.19,0.47 -0.445,0.935 -0.765,1.395c-0.32,0.46 -0.71,0.84 -1.17,1.14c-0.46,0.3 -0.99,0.45 -1.59,0.45c-0.8,-0 -1.37,-0.25 -1.71,-0.75c-0.34,-0.5 -0.51,-1.15 -0.51,-1.95c-0,-0.58 0.055,-1.21 0.165,-1.89c0.11,-0.68 0.235,-1.39 0.375,-2.13l-0.09,-0c-0.48,1.48 -0.975,2.665 -1.485,3.555c-0.51,0.89 -1.02,1.565 -1.53,2.025c-0.51,0.46 -1.005,0.765 -1.485,0.915c-0.48,0.15 -0.93,0.225 -1.35,0.225c-1.08,-0 -1.985,-0.4 -2.715,-1.2c-0.73,-0.8 -1.095,-2.14 -1.095,-4.02c-0,-1.4 0.18,-2.73 0.54,-3.99c0.36,-1.26 0.905,-2.375 1.635,-3.345c0.73,-0.97 1.645,-1.73 2.745,-2.28c1.1,-0.55 2.38,-0.825 3.84,-0.825Zm-0.93,1.08c-0.9,-0 -1.685,0.25 -2.355,0.75c-0.67,0.5 -1.225,1.175 -1.665,2.025c-0.44,0.85 -0.765,1.8 -0.975,2.85c-0.21,1.05 -0.315,2.125 -0.315,3.225c-0,1.28 0.14,2.335 0.42,3.165c0.28,0.83 0.79,1.245 1.53,1.245c0.54,-0 1.085,-0.27 1.635,-0.81c0.55,-0.54 1.065,-1.265 1.545,-2.175c0.48,-0.91 0.91,-1.93 1.29,-3.06c0.38,-1.13 0.68,-2.285 0.9,-3.465c0.22,-1.18 0.33,-2.31 0.33,-3.39c-0.3,-0.12 -0.65,-0.21 -1.05,-0.27c-0.4,-0.06 -0.83,-0.09 -1.29,-0.09Z" style="fill:#fff;fill-rule:nonzero;"/><path d="M331.565,396.487c-0.92,-0 -1.68,-0.255 -2.28,-0.765c-0.6,-0.51 -1.045,-1.2 -1.335,-2.07c-0.29,-0.87 -0.435,-1.825 -0.435,-2.865c-0,-1.96 0.325,-3.685 0.975,-5.175c0.65,-1.49 1.625,-2.66 2.925,-3.51c1.3,-0.85 2.91,-1.275 4.83,-1.275c0.3,-0 0.59,0.01 0.87,0.03c0.28,0.02 0.55,0.05 0.81,0.09c0.08,-0.72 0.165,-1.445 0.255,-2.175c0.09,-0.73 0.18,-1.4 0.27,-2.01c0.09,-0.61 0.175,-1.065 0.255,-1.365c-0.36,0.02 -0.725,0.04 -1.095,0.06c-0.37,0.02 -0.735,0.04 -1.095,0.06l0.12,-1.2c0.88,-0 1.565,-0.04 2.055,-0.12c0.49,-0.08 0.865,-0.18 1.125,-0.3c0.26,-0.12 0.47,-0.25 0.63,-0.39l0.87,-0c-0.18,1.08 -0.365,2.395 -0.555,3.945c-0.19,1.55 -0.425,3.515 -0.705,5.895c-0.14,1.28 -0.275,2.555 -0.405,3.825c-0.13,1.27 -0.24,2.445 -0.33,3.525c-0.09,1.08 -0.135,1.98 -0.135,2.7c-0,0.38 0.04,0.74 0.12,1.08c0.08,0.34 0.31,0.51 0.69,0.51c0.34,-0 0.71,-0.22 1.11,-0.66c0.4,-0.44 0.75,-1.19 1.05,-2.25l0.87,0.18c-0.06,0.36 -0.185,0.775 -0.375,1.245c-0.19,0.47 -0.445,0.935 -0.765,1.395c-0.32,0.46 -0.71,0.84 -1.17,1.14c-0.46,0.3 -0.99,0.45 -1.59,0.45c-0.8,-0 -1.385,-0.25 -1.755,-0.75c-0.37,-0.5 -0.555,-1.15 -0.555,-1.95c-0,-0.58 0.04,-1.185 0.12,-1.815c0.08,-0.63 0.19,-1.315 0.33,-2.055l-0.09,-0c-0.54,1.82 -1.135,3.205 -1.785,4.155c-0.65,0.95 -1.3,1.59 -1.95,1.92c-0.65,0.33 -1.275,0.495 -1.875,0.495Zm0.63,-1.41c0.64,-0 1.275,-0.36 1.905,-1.08c0.63,-0.72 1.205,-1.66 1.725,-2.82c0.52,-1.16 0.92,-2.39 1.2,-3.69c0.16,-0.7 0.295,-1.48 0.405,-2.34c0.11,-0.86 0.225,-1.84 0.345,-2.94c-0.32,-0.12 -0.655,-0.2 -1.005,-0.24c-0.35,-0.04 -0.695,-0.06 -1.035,-0.06c-0.84,-0 -1.575,0.17 -2.205,0.51c-0.63,0.34 -1.165,0.8 -1.605,1.38c-0.44,0.58 -0.795,1.23 -1.065,1.95c-0.27,0.72 -0.465,1.47 -0.585,2.25c-0.12,0.78 -0.18,1.54 -0.18,2.28c-0,1.36 0.155,2.5 0.465,3.42c0.31,0.92 0.855,1.38 1.635,1.38Z" style="fill:#fff;fill-rule:nonzero;"/><path d="M348.725,396.487c-0.8,-0 -1.57,-0.125 -2.31,-0.375c-0.74,-0.25 -1.34,-0.615 -1.8,-1.095c-0.46,-0.48 -0.69,-1.06 -0.69,-1.74c-0,-0.44 0.125,-0.795 0.375,-1.065c0.25,-0.27 0.555,-0.405 0.915,-0.405c0.4,-0 0.705,0.13 0.915,0.39c0.21,0.26 0.315,0.55 0.315,0.87c-0,0.14 -0.02,0.29 -0.06,0.45c-0.04,0.16 -0.11,0.32 -0.21,0.48c0.16,0.44 0.48,0.78 0.96,1.02c0.48,0.24 0.99,0.36 1.53,0.36c1.08,-0 1.89,-0.25 2.43,-0.75c0.54,-0.5 0.81,-1.2 0.81,-2.1c-0,-0.54 -0.19,-1.02 -0.57,-1.44c-0.38,-0.42 -0.86,-0.815 -1.44,-1.185c-0.58,-0.37 -1.18,-0.735 -1.8,-1.095c-0.58,-0.36 -1.135,-0.73 -1.665,-1.11c-0.53,-0.38 -0.96,-0.8 -1.29,-1.26c-0.33,-0.46 -0.495,-0.98 -0.495,-1.56c-0,-0.74 0.22,-1.415 0.66,-2.025c0.44,-0.61 1.05,-1.1 1.83,-1.47c0.78,-0.37 1.68,-0.555 2.7,-0.555c0.76,-0 1.475,0.12 2.145,0.36c0.67,0.24 1.22,0.58 1.65,1.02c0.43,0.44 0.645,0.96 0.645,1.56c-0,0.42 -0.12,0.755 -0.36,1.005c-0.24,0.25 -0.54,0.375 -0.9,0.375c-0.36,-0 -0.65,-0.12 -0.87,-0.36c-0.22,-0.24 -0.33,-0.52 -0.33,-0.84c-0,-0.16 0.02,-0.315 0.06,-0.465c0.04,-0.15 0.11,-0.305 0.21,-0.465c-0.1,-0.34 -0.345,-0.625 -0.735,-0.855c-0.39,-0.23 -0.925,-0.345 -1.605,-0.345c-0.44,-0 -0.87,0.1 -1.29,0.3c-0.42,0.2 -0.77,0.475 -1.05,0.825c-0.28,0.35 -0.42,0.765 -0.42,1.245c-0,0.38 0.115,0.73 0.345,1.05c0.23,0.32 0.535,0.62 0.915,0.9c0.38,0.28 0.79,0.56 1.23,0.84c0.72,0.42 1.46,0.865 2.22,1.335c0.76,0.47 1.395,1.005 1.905,1.605c0.51,0.6 0.765,1.33 0.765,2.19c-0,0.84 -0.235,1.59 -0.705,2.25c-0.47,0.66 -1.13,1.18 -1.98,1.56c-0.85,0.38 -1.835,0.57 -2.955,0.57Z" style="fill:#fff;fill-rule:nonzero;"/><path d="M372.695,375.157l-0.06,0.99c-0.7,0.02 -1.2,0.19 -1.5,0.51c-0.3,0.32 -0.49,0.75 -0.57,1.29c-0.08,0.54 -0.14,1.17 -0.18,1.89l-0.69,12.87c-0.02,0.54 -0.05,1 -0.09,1.38c-0.04,0.38 -0.08,0.7 -0.12,0.96l5.61,-0.09c1.26,-0.04 2.24,-0.44 2.94,-1.2c0.7,-0.76 1.09,-2.03 1.17,-3.81l1.02,-0l-0.51,6.21l-14.76,-0l0.06,-0.99c0.76,-0.04 1.285,-0.215 1.575,-0.525c0.29,-0.31 0.465,-0.74 0.525,-1.29c0.06,-0.55 0.11,-1.175 0.15,-1.875l0.72,-12.96c0.04,-0.4 0.07,-0.785 0.09,-1.155c0.02,-0.37 0.06,-0.705 0.12,-1.005c-0.36,0.02 -0.715,0.04 -1.065,0.06c-0.35,0.02 -0.705,0.04 -1.065,0.06l-0,-1.32l6.63,-0Z" style="fill:#fff;fill-rule:nonzero;"/><path d="M384.815,380.827c0.84,-0 1.47,0.285 1.89,0.855c0.42,0.57 0.63,1.325 0.63,2.265c-0,0.6 -0.055,1.285 -0.165,2.055c-0.11,0.77 -0.245,1.595 -0.405,2.475c-0.16,0.88 -0.295,1.765 -0.405,2.655c-0.11,0.89 -0.165,1.755 -0.165,2.595c-0,0.4 0.075,0.71 0.225,0.93c0.15,0.22 0.385,0.33 0.705,0.33c0.34,-0 0.715,-0.22 1.125,-0.66c0.41,-0.44 0.765,-1.19 1.065,-2.25l0.84,0.18c-0.08,0.42 -0.215,0.875 -0.405,1.365c-0.19,0.49 -0.435,0.95 -0.735,1.38c-0.3,0.43 -0.665,0.785 -1.095,1.065c-0.43,0.28 -0.925,0.42 -1.485,0.42c-0.92,-0 -1.6,-0.24 -2.04,-0.72c-0.44,-0.48 -0.66,-1.18 -0.66,-2.1c-0,-0.88 0.06,-1.735 0.18,-2.565c0.12,-0.83 0.255,-1.65 0.405,-2.46c0.15,-0.81 0.285,-1.625 0.405,-2.445c0.12,-0.82 0.18,-1.66 0.18,-2.52c-0,-0.26 -0.055,-0.55 -0.165,-0.87c-0.11,-0.32 -0.335,-0.48 -0.675,-0.48c-0.32,-0 -0.69,0.22 -1.11,0.66c-0.42,0.44 -0.78,1.19 -1.08,2.25l-0.84,-0.18c0.06,-0.36 0.18,-0.775 0.36,-1.245c0.18,-0.47 0.425,-0.935 0.735,-1.395c0.31,-0.46 0.685,-0.84 1.125,-1.14c0.44,-0.3 0.96,-0.45 1.56,-0.45Zm1.71,-6.48c0.46,-0 0.84,0.155 1.14,0.465c0.3,0.31 0.45,0.725 0.45,1.245c-0,0.5 -0.16,0.905 -0.48,1.215c-0.32,0.31 -0.7,0.465 -1.14,0.465c-0.44,-0 -0.815,-0.155 -1.125,-0.465c-0.31,-0.31 -0.465,-0.715 -0.465,-1.215c-0,-0.52 0.16,-0.935 0.48,-1.245c0.32,-0.31 0.7,-0.465 1.14,-0.465Z" style="fill:#fff;fill-rule:nonzero;"/><path d="M400.025,373.357c0.74,-0.02 1.31,0.105 1.71,0.375c0.4,0.27 0.6,0.665 0.6,1.185c-0,0.14 -0.035,0.31 -0.105,0.51c-0.07,0.2 -0.195,0.365 -0.375,0.495c-0.18,0.13 -0.42,0.195 -0.72,0.195c-0.38,-0 -0.68,-0.14 -0.9,-0.42c-0.22,-0.28 -0.32,-0.64 -0.3,-1.08c-0.06,-0.04 -0.18,-0.075 -0.36,-0.105c-0.18,-0.03 -0.35,-0.035 -0.51,-0.015c-0.48,0.04 -0.875,0.235 -1.185,0.585c-0.31,0.35 -0.565,0.82 -0.765,1.41c-0.2,0.59 -0.36,1.28 -0.48,2.07c-0.12,0.79 -0.22,1.655 -0.3,2.595l4.26,-0l-0.09,1.17l-4.26,0.06c-0.02,0.52 -0.045,1.05 -0.075,1.59c-0.03,0.54 -0.06,1.095 -0.09,1.665c-0.03,0.57 -0.065,1.14 -0.105,1.71c-0.04,0.57 -0.09,1.145 -0.15,1.725c-0.14,1.46 -0.27,2.915 -0.39,4.365c-0.12,1.45 -0.295,2.825 -0.525,4.125c-0.23,1.3 -0.565,2.455 -1.005,3.465c-0.44,1.01 -1.045,1.805 -1.815,2.385c-0.77,0.58 -1.755,0.87 -2.955,0.87c-0.76,-0 -1.34,-0.135 -1.74,-0.405c-0.4,-0.27 -0.6,-0.655 -0.6,-1.155c-0,-0.16 0.04,-0.335 0.12,-0.525c0.08,-0.19 0.21,-0.36 0.39,-0.51c0.18,-0.15 0.42,-0.215 0.72,-0.195c0.36,0.02 0.645,0.155 0.855,0.405c0.21,0.25 0.315,0.575 0.315,0.975c0.22,0.16 0.51,0.24 0.87,0.24c0.7,-0 1.235,-0.37 1.605,-1.11c0.37,-0.74 0.645,-1.765 0.825,-3.075c0.18,-1.31 0.325,-2.83 0.435,-4.56c0.11,-1.73 0.255,-3.585 0.435,-5.565l0.24,-3.24c0.04,-0.54 0.085,-1.075 0.135,-1.605c0.05,-0.53 0.105,-1.045 0.165,-1.545l-2.64,0.03l0.15,-1.29l2.64,-0c0.22,-1.46 0.54,-2.77 0.96,-3.93c0.42,-1.16 1.03,-2.09 1.83,-2.79c0.8,-0.7 1.86,-1.06 3.18,-1.08Z" style="fill:#fff;fill-rule:nonzero;"/><path d="M408.395,380.827c0.72,-0 1.4,0.11 2.04,0.33c0.64,0.22 1.16,0.58 1.56,1.08c0.4,0.5 0.6,1.18 0.6,2.04c-0,0.82 -0.28,1.53 -0.84,2.13c-0.56,0.6 -1.29,1.095 -2.19,1.485c-0.9,0.39 -1.86,0.705 -2.88,0.945c-1.02,0.24 -2,0.41 -2.94,0.51c-0,1.24 0.125,2.28 0.375,3.12c0.25,0.84 0.625,1.47 1.125,1.89c0.5,0.42 1.14,0.63 1.92,0.63c0.58,-0 1.165,-0.13 1.755,-0.39c0.59,-0.26 1.155,-0.655 1.695,-1.185c0.54,-0.53 1.03,-1.215 1.47,-2.055l0.99,0.57c-0.56,1.04 -1.16,1.9 -1.8,2.58c-0.64,0.68 -1.34,1.18 -2.1,1.5c-0.76,0.32 -1.6,0.48 -2.52,0.48c-1.9,-0 -3.3,-0.595 -4.2,-1.785c-0.9,-1.19 -1.35,-2.755 -1.35,-4.695c-0,-1.16 0.15,-2.29 0.45,-3.39c0.3,-1.1 0.75,-2.085 1.35,-2.955c0.6,-0.87 1.36,-1.56 2.28,-2.07c0.92,-0.51 1.99,-0.765 3.21,-0.765Zm-0.42,1.02c-0.92,-0 -1.675,0.31 -2.265,0.93c-0.59,0.62 -1.04,1.42 -1.35,2.4c-0.31,0.98 -0.505,2.01 -0.585,3.09c1.06,-0.14 2.07,-0.39 3.03,-0.75c0.96,-0.36 1.75,-0.825 2.37,-1.395c0.62,-0.57 0.93,-1.235 0.93,-1.995c-0,-0.64 -0.175,-1.18 -0.525,-1.62c-0.35,-0.44 -0.885,-0.66 -1.605,-0.66Z" style="fill:#fff;fill-rule:nonzero;"/><path d="M422.585,380.827c0.86,-0 1.63,0.155 2.31,0.465c0.68,0.31 1.215,0.73 1.605,1.26c0.39,0.53 0.585,1.125 0.585,1.785c-0,0.44 -0.11,0.795 -0.33,1.065c-0.22,0.27 -0.53,0.405 -0.93,0.405c-0.48,0.02 -0.815,-0.12 -1.005,-0.42c-0.19,-0.3 -0.285,-0.56 -0.285,-0.78c-0,-0.18 0.025,-0.37 0.075,-0.57c0.05,-0.2 0.155,-0.39 0.315,-0.57c-0.1,-0.56 -0.375,-0.965 -0.825,-1.215c-0.45,-0.25 -0.965,-0.375 -1.545,-0.375c-0.86,-0 -1.58,0.23 -2.16,0.69c-0.58,0.46 -1.04,1.06 -1.38,1.8c-0.34,0.74 -0.585,1.535 -0.735,2.385c-0.15,0.85 -0.225,1.675 -0.225,2.475c-0,1.4 0.155,2.525 0.465,3.375c0.31,0.85 0.745,1.465 1.305,1.845c0.56,0.38 1.19,0.57 1.89,0.57c0.52,-0 1.06,-0.115 1.62,-0.345c0.56,-0.23 1.1,-0.62 1.62,-1.17c0.52,-0.55 0.97,-1.305 1.35,-2.265l1.05,0.51c-0.5,1.16 -1.08,2.085 -1.74,2.775c-0.66,0.69 -1.365,1.19 -2.115,1.5c-0.75,0.31 -1.515,0.465 -2.295,0.465c-1.76,-0 -3.165,-0.535 -4.215,-1.605c-1.05,-1.07 -1.575,-2.725 -1.575,-4.965c-0,-0.98 0.14,-2 0.42,-3.06c0.28,-1.06 0.71,-2.045 1.29,-2.955c0.58,-0.91 1.325,-1.65 2.235,-2.22c0.91,-0.57 1.985,-0.855 3.225,-0.855Z" style="fill:#fff;fill-rule:nonzero;"/><path d="M430.355,404.287c-0.68,-0.04 -1.23,-0.235 -1.65,-0.585c-0.42,-0.35 -0.63,-0.785 -0.63,-1.305c-0,-0.46 0.14,-0.805 0.42,-1.035c0.28,-0.23 0.55,-0.345 0.81,-0.345c0.9,-0 1.33,0.52 1.29,1.56c0.12,0.06 0.23,0.11 0.33,0.15c0.1,0.04 0.21,0.06 0.33,0.06c0.44,0.02 0.895,-0.14 1.365,-0.48c0.47,-0.34 0.92,-0.765 1.35,-1.275c0.43,-0.51 0.81,-1.01 1.14,-1.5c0.33,-0.49 0.575,-0.865 0.735,-1.125c-0.18,-1.16 -0.39,-2.355 -0.63,-3.585c-0.24,-1.23 -0.515,-2.46 -0.825,-3.69c-0.31,-1.23 -0.65,-2.42 -1.02,-3.57c-0.37,-1.15 -0.765,-2.235 -1.185,-3.255c-0.14,-0.34 -0.32,-0.69 -0.54,-1.05c-0.22,-0.36 -0.53,-0.52 -0.93,-0.48c-0.38,0.04 -0.665,0.34 -0.855,0.9c-0.19,0.56 -0.245,1.3 -0.165,2.22l-0.96,0.12c-0.06,-0.54 -0.065,-1.11 -0.015,-1.71c0.05,-0.6 0.175,-1.165 0.375,-1.695c0.2,-0.53 0.49,-0.96 0.87,-1.29c0.38,-0.33 0.88,-0.495 1.5,-0.495c0.68,-0 1.235,0.18 1.665,0.54c0.43,0.36 0.78,0.8 1.05,1.32c0.27,0.52 0.495,1.03 0.675,1.53c0.38,1.02 0.75,2.19 1.11,3.51c0.36,1.32 0.675,2.665 0.945,4.035c0.27,1.37 0.475,2.645 0.615,3.825l0.06,-0c0.56,-0.98 1.1,-2.06 1.62,-3.24c0.52,-1.18 0.95,-2.385 1.29,-3.615c0.34,-1.23 0.51,-2.385 0.51,-3.465c-0,-0.5 -0.045,-0.94 -0.135,-1.32c-0.09,-0.38 -0.195,-0.65 -0.315,-0.81c-0.08,0.06 -0.185,0.105 -0.315,0.135c-0.13,0.03 -0.275,0.045 -0.435,0.045c-0.36,-0 -0.65,-0.115 -0.87,-0.345c-0.22,-0.23 -0.33,-0.505 -0.33,-0.825c-0,-0.44 0.145,-0.77 0.435,-0.99c0.29,-0.22 0.615,-0.33 0.975,-0.33c0.62,-0 1.1,0.19 1.44,0.57c0.34,0.38 0.585,0.86 0.735,1.44c0.15,0.58 0.225,1.19 0.225,1.83c-0,1.32 -0.19,2.67 -0.57,4.05c-0.38,1.38 -0.875,2.74 -1.485,4.08c-0.61,1.34 -1.255,2.63 -1.935,3.87c-1,1.8 -1.955,3.27 -2.865,4.41c-0.91,1.14 -1.795,1.965 -2.655,2.475c-0.86,0.51 -1.71,0.755 -2.55,0.735Z" style="fill:#fff;fill-rule:nonzero;"/><path d="M452.195,380.827c0.86,-0 1.63,0.155 2.31,0.465c0.68,0.31 1.215,0.73 1.605,1.26c0.39,0.53 0.585,1.125 0.585,1.785c-0,0.44 -0.11,0.795 -0.33,1.065c-0.22,0.27 -0.53,0.405 -0.93,0.405c-0.48,0.02 -0.815,-0.12 -1.005,-0.42c-0.19,-0.3 -0.285,-0.56 -0.285,-0.78c-0,-0.18 0.025,-0.37 0.075,-0.57c0.05,-0.2 0.155,-0.39 0.315,-0.57c-0.1,-0.56 -0.375,-0.965 -0.825,-1.215c-0.45,-0.25 -0.965,-0.375 -1.545,-0.375c-0.86,-0 -1.58,0.23 -2.16,0.69c-0.58,0.46 -1.04,1.06 -1.38,1.8c-0.34,0.74 -0.585,1.535 -0.735,2.385c-0.15,0.85 -0.225,1.675 -0.225,2.475c-0,1.4 0.155,2.525 0.465,3.375c0.31,0.85 0.745,1.465 1.305,1.845c0.56,0.38 1.19,0.57 1.89,0.57c0.52,-0 1.06,-0.115 1.62,-0.345c0.56,-0.23 1.1,-0.62 1.62,-1.17c0.52,-0.55 0.97,-1.305 1.35,-2.265l1.05,0.51c-0.5,1.16 -1.08,2.085 -1.74,2.775c-0.66,0.69 -1.365,1.19 -2.115,1.5c-0.75,0.31 -1.515,0.465 -2.295,0.465c-1.76,-0 -3.165,-0.535 -4.215,-1.605c-1.05,-1.07 -1.575,-2.725 -1.575,-4.965c-0,-0.98 0.14,-2 0.42,-3.06c0.28,-1.06 0.71,-2.045 1.29,-2.955c0.58,-0.91 1.325,-1.65 2.235,-2.22c0.91,-0.57 1.985,-0.855 3.225,-0.855Z" style="fill:#fff;fill-rule:nonzero;"/><path d="M464.465,373.507c-0.06,0.5 -0.145,1.06 -0.255,1.68c-0.11,0.62 -0.21,1.23 -0.3,1.83c-0.09,0.6 -0.165,1.13 -0.225,1.59c-0.12,0.84 -0.24,1.795 -0.36,2.865c-0.12,1.07 -0.24,2.18 -0.36,3.33c-0.12,1.15 -0.225,2.275 -0.315,3.375c-0.09,1.1 -0.165,2.105 -0.225,3.015c-0.06,0.91 -0.09,1.655 -0.09,2.235c-0,0.38 0.04,0.735 0.12,1.065c0.08,0.33 0.31,0.495 0.69,0.495c0.34,-0 0.715,-0.215 1.125,-0.645c0.41,-0.43 0.765,-1.185 1.065,-2.265l0.84,0.21c-0.06,0.34 -0.185,0.75 -0.375,1.23c-0.19,0.48 -0.445,0.945 -0.765,1.395c-0.32,0.45 -0.705,0.825 -1.155,1.125c-0.45,0.3 -0.975,0.45 -1.575,0.45c-0.82,-0 -1.42,-0.205 -1.8,-0.615c-0.38,-0.41 -0.58,-1.015 -0.6,-1.815c-0.02,-0.5 0.005,-1.24 0.075,-2.22c0.07,-0.98 0.16,-2.095 0.27,-3.345c0.11,-1.25 0.235,-2.56 0.375,-3.93c0.14,-1.37 0.29,-2.705 0.45,-4.005c0.16,-1.3 0.31,-2.48 0.45,-3.54c0.1,-0.54 0.165,-0.895 0.195,-1.065c0.03,-0.17 0.055,-0.355 0.075,-0.555c-0.36,0.02 -0.715,0.04 -1.065,0.06c-0.35,0.02 -0.705,0.04 -1.065,0.06l0.15,-1.2c0.88,-0 1.565,-0.04 2.055,-0.12c0.49,-0.08 0.865,-0.18 1.125,-0.3c0.26,-0.12 0.47,-0.25 0.63,-0.39l0.84,-0Z" style="fill:#fff;fill-rule:nonzero;"/><path d="M474.995,380.827c0.72,-0 1.4,0.11 2.04,0.33c0.64,0.22 1.16,0.58 1.56,1.08c0.4,0.5 0.6,1.18 0.6,2.04c-0,0.82 -0.28,1.53 -0.84,2.13c-0.56,0.6 -1.29,1.095 -2.19,1.485c-0.9,0.39 -1.86,0.705 -2.88,0.945c-1.02,0.24 -2,0.41 -2.94,0.51c-0,1.24 0.125,2.28 0.375,3.12c0.25,0.84 0.625,1.47 1.125,1.89c0.5,0.42 1.14,0.63 1.92,0.63c0.58,-0 1.165,-0.13 1.755,-0.39c0.59,-0.26 1.155,-0.655 1.695,-1.185c0.54,-0.53 1.03,-1.215 1.47,-2.055l0.99,0.57c-0.56,1.04 -1.16,1.9 -1.8,2.58c-0.64,0.68 -1.34,1.18 -2.1,1.5c-0.76,0.32 -1.6,0.48 -2.52,0.48c-1.9,-0 -3.3,-0.595 -4.2,-1.785c-0.9,-1.19 -1.35,-2.755 -1.35,-4.695c-0,-1.16 0.15,-2.29 0.45,-3.39c0.3,-1.1 0.75,-2.085 1.35,-2.955c0.6,-0.87 1.36,-1.56 2.28,-2.07c0.92,-0.51 1.99,-0.765 3.21,-0.765Zm-0.42,1.02c-0.92,-0 -1.675,0.31 -2.265,0.93c-0.59,0.62 -1.04,1.42 -1.35,2.4c-0.31,0.98 -0.505,2.01 -0.585,3.09c1.06,-0.14 2.07,-0.39 3.03,-0.75c0.96,-0.36 1.75,-0.825 2.37,-1.395c0.62,-0.57 0.93,-1.235 0.93,-1.995c-0,-0.64 -0.175,-1.18 -0.525,-1.62c-0.35,-0.44 -0.885,-0.66 -1.605,-0.66Z" style="fill:#fff;fill-rule:nonzero;"/></g><g><path d="M216.921,309.083l-0.03,0.99c-0.76,0.02 -1.29,0.19 -1.59,0.51c-0.3,0.32 -0.48,0.75 -0.54,1.29c-0.06,0.54 -0.11,1.17 -0.15,1.89l-0.42,6.99c-0.08,1.3 -0.29,2.54 -0.63,3.72c-0.34,1.18 -0.845,2.225 -1.515,3.135c-0.67,0.91 -1.535,1.63 -2.595,2.16c-1.06,0.53 -2.34,0.795 -3.84,0.795c-1.6,0 -2.93,-0.21 -3.99,-0.63c-1.06,-0.42 -1.885,-1.065 -2.475,-1.935c-0.59,-0.87 -0.99,-1.975 -1.2,-3.315c-0.21,-1.34 -0.265,-2.94 -0.165,-4.8l0.39,-7.17c0.04,-0.52 0.075,-0.96 0.105,-1.32c0.03,-0.36 0.075,-0.73 0.135,-1.11c-0.36,0.02 -0.72,0.035 -1.08,0.045c-0.36,0.01 -0.72,0.025 -1.08,0.045l0.06,-1.29l6.66,0l-0.06,0.99c-0.68,0 -1.17,0.14 -1.47,0.42c-0.3,0.28 -0.495,0.605 -0.585,0.975c-0.09,0.37 -0.145,0.695 -0.165,0.975l-0.39,7.59c-0.06,1.12 -0.04,2.205 0.06,3.255c0.1,1.05 0.34,1.995 0.72,2.835c0.38,0.84 0.97,1.505 1.77,1.995c0.8,0.49 1.87,0.735 3.21,0.735c1.44,0 2.625,-0.34 3.555,-1.02c0.93,-0.68 1.645,-1.615 2.145,-2.805c0.5,-1.19 0.8,-2.565 0.9,-4.125l0.54,-8.46c0.04,-0.4 0.075,-0.785 0.105,-1.155c0.03,-0.37 0.065,-0.705 0.105,-1.005l-2.16,0.12l0.06,-1.32l5.61,0Z" style="fill:#092168;fill-rule:nonzero;"/><path d="M222.171,330.413c-0.8,0 -1.57,-0.125 -2.31,-0.375c-0.74,-0.25 -1.34,-0.615 -1.8,-1.095c-0.46,-0.48 -0.69,-1.06 -0.69,-1.74c0,-0.44 0.125,-0.795 0.375,-1.065c0.25,-0.27 0.555,-0.405 0.915,-0.405c0.4,0 0.705,0.13 0.915,0.39c0.21,0.26 0.315,0.55 0.315,0.87c0,0.14 -0.02,0.29 -0.06,0.45c-0.04,0.16 -0.11,0.32 -0.21,0.48c0.16,0.44 0.48,0.78 0.96,1.02c0.48,0.24 0.99,0.36 1.53,0.36c1.08,0 1.89,-0.25 2.43,-0.75c0.54,-0.5 0.81,-1.2 0.81,-2.1c0,-0.54 -0.19,-1.02 -0.57,-1.44c-0.38,-0.42 -0.86,-0.815 -1.44,-1.185c-0.58,-0.37 -1.18,-0.735 -1.8,-1.095c-0.58,-0.36 -1.135,-0.73 -1.665,-1.11c-0.53,-0.38 -0.96,-0.8 -1.29,-1.26c-0.33,-0.46 -0.495,-0.98 -0.495,-1.56c0,-0.74 0.22,-1.415 0.66,-2.025c0.44,-0.61 1.05,-1.1 1.83,-1.47c0.78,-0.37 1.68,-0.555 2.7,-0.555c0.76,0 1.475,0.12 2.145,0.36c0.67,0.24 1.22,0.58 1.65,1.02c0.43,0.44 0.645,0.96 0.645,1.56c0,0.42 -0.12,0.755 -0.36,1.005c-0.24,0.25 -0.54,0.375 -0.9,0.375c-0.36,0 -0.65,-0.12 -0.87,-0.36c-0.22,-0.24 -0.33,-0.52 -0.33,-0.84c0,-0.16 0.02,-0.315 0.06,-0.465c0.04,-0.15 0.11,-0.305 0.21,-0.465c-0.1,-0.34 -0.345,-0.625 -0.735,-0.855c-0.39,-0.23 -0.925,-0.345 -1.605,-0.345c-0.44,0 -0.87,0.1 -1.29,0.3c-0.42,0.2 -0.77,0.475 -1.05,0.825c-0.28,0.35 -0.42,0.765 -0.42,1.245c0,0.38 0.115,0.73 0.345,1.05c0.23,0.32 0.535,0.62 0.915,0.9c0.38,0.28 0.79,0.56 1.23,0.84c0.72,0.42 1.46,0.865 2.22,1.335c0.76,0.47 1.395,1.005 1.905,1.605c0.51,0.6 0.765,1.33 0.765,2.19c0,0.84 -0.235,1.59 -0.705,2.25c-0.47,0.66 -1.13,1.18 -1.98,1.56c-0.85,0.38 -1.835,0.57 -2.955,0.57Z" style="fill:#092168;fill-rule:nonzero;"/><path d="M237.771,314.753c0.72,0 1.4,0.11 2.04,0.33c0.64,0.22 1.16,0.58 1.56,1.08c0.4,0.5 0.6,1.18 0.6,2.04c0,0.82 -0.28,1.53 -0.84,2.13c-0.56,0.6 -1.29,1.095 -2.19,1.485c-0.9,0.39 -1.86,0.705 -2.88,0.945c-1.02,0.24 -2,0.41 -2.94,0.51c0,1.24 0.125,2.28 0.375,3.12c0.25,0.84 0.625,1.47 1.125,1.89c0.5,0.42 1.14,0.63 1.92,0.63c0.58,0 1.165,-0.13 1.755,-0.39c0.59,-0.26 1.155,-0.655 1.695,-1.185c0.54,-0.53 1.03,-1.215 1.47,-2.055l0.99,0.57c-0.56,1.04 -1.16,1.9 -1.8,2.58c-0.64,0.68 -1.34,1.18 -2.1,1.5c-0.76,0.32 -1.6,0.48 -2.52,0.48c-1.9,0 -3.3,-0.595 -4.2,-1.785c-0.9,-1.19 -1.35,-2.755 -1.35,-4.695c0,-1.16 0.15,-2.29 0.45,-3.39c0.3,-1.1 0.75,-2.085 1.35,-2.955c0.6,-0.87 1.36,-1.56 2.28,-2.07c0.92,-0.51 1.99,-0.765 3.21,-0.765Zm-0.42,1.02c-0.92,0 -1.675,0.31 -2.265,0.93c-0.59,0.62 -1.04,1.42 -1.35,2.4c-0.31,0.98 -0.505,2.01 -0.585,3.09c1.06,-0.14 2.07,-0.39 3.03,-0.75c0.96,-0.36 1.75,-0.825 2.37,-1.395c0.62,-0.57 0.93,-1.235 0.93,-1.995c0,-0.64 -0.175,-1.18 -0.525,-1.62c-0.35,-0.44 -0.885,-0.66 -1.605,-0.66Z" style="fill:#092168;fill-rule:nonzero;"/></g><g><path d="M544.901,285.58c1.94,-0 3.545,0.225 4.815,0.675c1.27,0.45 2.225,1.11 2.865,1.98c0.64,0.87 0.96,1.945 0.96,3.225c-0,0.78 -0.15,1.595 -0.45,2.445c-0.3,0.85 -0.82,1.64 -1.56,2.37c-0.74,0.73 -1.77,1.325 -3.09,1.785c-1.32,0.46 -3.01,0.69 -5.07,0.69l-0.51,-0c-0.24,-0 -0.46,-0.01 -0.66,-0.03l-0.24,4.35c-0.02,0.54 -0.05,1.005 -0.09,1.395c-0.04,0.39 -0.08,0.715 -0.12,0.975c0.32,-0.02 0.63,-0.04 0.93,-0.06c0.3,-0.02 0.605,-0.035 0.915,-0.045c0.31,-0.01 0.615,-0.025 0.915,-0.045l-0.06,1.35l-7.23,-0l0.06,-0.99c0.76,-0.04 1.29,-0.215 1.59,-0.525c0.3,-0.31 0.48,-0.74 0.54,-1.29c0.06,-0.55 0.1,-1.175 0.12,-1.875l0.69,-12.96c0.04,-0.4 0.075,-0.785 0.105,-1.155c0.03,-0.37 0.065,-0.705 0.105,-1.005c-0.36,0.02 -0.725,0.04 -1.095,0.06c-0.37,0.02 -0.735,0.04 -1.095,0.06l0.09,-1.32c1.06,-0.02 2.13,-0.035 3.21,-0.045c1.08,-0.01 2.2,-0.015 3.36,-0.015Zm-0.12,1.17c-0.62,-0 -1.08,0.135 -1.38,0.405c-0.3,0.27 -0.49,0.66 -0.57,1.17c-0.08,0.51 -0.14,1.125 -0.18,1.845l-0.39,7.29c0.38,0.04 0.71,0.065 0.99,0.075c0.28,0.01 0.6,0.015 0.96,0.015c1.14,-0 2.195,-0.22 3.165,-0.66c0.97,-0.44 1.755,-1.08 2.355,-1.92c0.6,-0.84 0.93,-1.84 0.99,-3c0.04,-0.94 -0.07,-1.745 -0.33,-2.415c-0.26,-0.67 -0.655,-1.21 -1.185,-1.62c-0.53,-0.41 -1.17,-0.71 -1.92,-0.9c-0.75,-0.19 -1.585,-0.285 -2.505,-0.285Z" style="fill:#092168;fill-rule:nonzero;"/><path d="M560.321,283.99c-0.06,0.5 -0.145,1.06 -0.255,1.68c-0.11,0.62 -0.21,1.23 -0.3,1.83c-0.09,0.6 -0.165,1.13 -0.225,1.59c-0.12,0.84 -0.24,1.795 -0.36,2.865c-0.12,1.07 -0.24,2.18 -0.36,3.33c-0.12,1.15 -0.225,2.275 -0.315,3.375c-0.09,1.1 -0.165,2.105 -0.225,3.015c-0.06,0.91 -0.09,1.655 -0.09,2.235c-0,0.38 0.04,0.735 0.12,1.065c0.08,0.33 0.31,0.495 0.69,0.495c0.34,-0 0.715,-0.215 1.125,-0.645c0.41,-0.43 0.765,-1.185 1.065,-2.265l0.84,0.21c-0.06,0.34 -0.185,0.75 -0.375,1.23c-0.19,0.48 -0.445,0.945 -0.765,1.395c-0.32,0.45 -0.705,0.825 -1.155,1.125c-0.45,0.3 -0.975,0.45 -1.575,0.45c-0.82,-0 -1.42,-0.205 -1.8,-0.615c-0.38,-0.41 -0.58,-1.015 -0.6,-1.815c-0.02,-0.5 0.005,-1.24 0.075,-2.22c0.07,-0.98 0.16,-2.095 0.27,-3.345c0.11,-1.25 0.235,-2.56 0.375,-3.93c0.14,-1.37 0.29,-2.705 0.45,-4.005c0.16,-1.3 0.31,-2.48 0.45,-3.54c0.1,-0.54 0.165,-0.895 0.195,-1.065c0.03,-0.17 0.055,-0.355 0.075,-0.555c-0.36,0.02 -0.715,0.04 -1.065,0.06c-0.35,0.02 -0.705,0.04 -1.065,0.06l0.15,-1.2c0.88,-0 1.565,-0.04 2.055,-0.12c0.49,-0.08 0.865,-0.18 1.125,-0.3c0.26,-0.12 0.47,-0.25 0.63,-0.39l0.84,-0Z" style="fill:#092168;fill-rule:nonzero;"/><path d="M572.261,291.31c0.6,-0 1.26,0.045 1.98,0.135c0.72,0.09 1.4,0.215 2.04,0.375c-0.16,1.2 -0.315,2.395 -0.465,3.585c-0.15,1.19 -0.29,2.32 -0.42,3.39c-0.13,1.07 -0.235,2.03 -0.315,2.88c-0.08,0.85 -0.12,1.515 -0.12,1.995c-0,0.4 0.03,0.8 0.09,1.2c0.06,0.4 0.31,0.6 0.75,0.6c0.34,-0 0.715,-0.22 1.125,-0.66c0.41,-0.44 0.765,-1.19 1.065,-2.25l0.84,0.18c-0.06,0.36 -0.185,0.775 -0.375,1.245c-0.19,0.47 -0.445,0.935 -0.765,1.395c-0.32,0.46 -0.71,0.84 -1.17,1.14c-0.46,0.3 -0.99,0.45 -1.59,0.45c-0.8,-0 -1.37,-0.25 -1.71,-0.75c-0.34,-0.5 -0.51,-1.15 -0.51,-1.95c-0,-0.58 0.055,-1.21 0.165,-1.89c0.11,-0.68 0.235,-1.39 0.375,-2.13l-0.09,-0c-0.48,1.48 -0.975,2.665 -1.485,3.555c-0.51,0.89 -1.02,1.565 -1.53,2.025c-0.51,0.46 -1.005,0.765 -1.485,0.915c-0.48,0.15 -0.93,0.225 -1.35,0.225c-1.08,-0 -1.985,-0.4 -2.715,-1.2c-0.73,-0.8 -1.095,-2.14 -1.095,-4.02c-0,-1.4 0.18,-2.73 0.54,-3.99c0.36,-1.26 0.905,-2.375 1.635,-3.345c0.73,-0.97 1.645,-1.73 2.745,-2.28c1.1,-0.55 2.38,-0.825 3.84,-0.825Zm-0.93,1.08c-0.9,-0 -1.685,0.25 -2.355,0.75c-0.67,0.5 -1.225,1.175 -1.665,2.025c-0.44,0.85 -0.765,1.8 -0.975,2.85c-0.21,1.05 -0.315,2.125 -0.315,3.225c-0,1.28 0.14,2.335 0.42,3.165c0.28,0.83 0.79,1.245 1.53,1.245c0.54,-0 1.085,-0.27 1.635,-0.81c0.55,-0.54 1.065,-1.265 1.545,-2.175c0.48,-0.91 0.91,-1.93 1.29,-3.06c0.38,-1.13 0.68,-2.285 0.9,-3.465c0.22,-1.18 0.33,-2.31 0.33,-3.39c-0.3,-0.12 -0.65,-0.21 -1.05,-0.27c-0.4,-0.06 -0.83,-0.09 -1.29,-0.09Z" style="fill:#092168;fill-rule:nonzero;"/><path d="M593.021,306.97c-0.94,-0 -1.58,-0.25 -1.92,-0.75c-0.34,-0.5 -0.51,-1.21 -0.51,-2.13c-0,-0.56 0.045,-1.22 0.135,-1.98c0.09,-0.76 0.2,-1.57 0.33,-2.43c0.13,-0.86 0.24,-1.73 0.33,-2.61c0.09,-0.88 0.135,-1.72 0.135,-2.52c-0,-0.24 -0.035,-0.5 -0.105,-0.78c-0.07,-0.28 -0.205,-0.525 -0.405,-0.735c-0.2,-0.21 -0.5,-0.315 -0.9,-0.315c-0.56,-0 -1.12,0.26 -1.68,0.78c-0.56,0.52 -1.09,1.22 -1.59,2.1c-0.5,0.88 -0.95,1.855 -1.35,2.925c-0.4,1.07 -0.715,2.17 -0.945,3.3c-0.23,1.13 -0.345,2.205 -0.345,3.225c-0,0.3 0.005,0.575 0.015,0.825c0.01,0.25 0.025,0.505 0.045,0.765l-2.52,-0c-0.02,-0.14 -0.03,-0.265 -0.03,-0.375l-0,-0.405c-0,-0.34 0.02,-0.735 0.06,-1.185c0.04,-0.45 0.105,-1.05 0.195,-1.8c0.09,-0.75 0.205,-1.755 0.345,-3.015c0.14,-1.18 0.245,-2.1 0.315,-2.76c0.07,-0.66 0.125,-1.165 0.165,-1.515c0.04,-0.35 0.065,-0.62 0.075,-0.81c0.01,-0.19 0.015,-0.395 0.015,-0.615c-0,-0.36 -0.05,-0.675 -0.15,-0.945c-0.1,-0.27 -0.32,-0.405 -0.66,-0.405c-0.32,-0 -0.69,0.22 -1.11,0.66c-0.42,0.44 -0.78,1.19 -1.08,2.25l-0.84,-0.18c0.06,-0.36 0.185,-0.775 0.375,-1.245c0.19,-0.47 0.445,-0.935 0.765,-1.395c0.32,-0.46 0.71,-0.84 1.17,-1.14c0.46,-0.3 0.99,-0.45 1.59,-0.45c0.68,-0 1.185,0.185 1.515,0.555c0.33,0.37 0.54,0.845 0.63,1.425c0.09,0.58 0.115,1.2 0.075,1.86c-0.04,0.56 -0.105,1.1 -0.195,1.62c-0.09,0.52 -0.175,0.98 -0.255,1.38l0.09,-0c0.68,-1.82 1.35,-3.225 2.01,-4.215c0.66,-0.99 1.315,-1.675 1.965,-2.055c0.65,-0.38 1.295,-0.57 1.935,-0.57c0.8,-0 1.44,0.18 1.92,0.54c0.48,0.36 0.825,0.835 1.035,1.425c0.21,0.59 0.315,1.235 0.315,1.935c-0,1.1 -0.075,2.225 -0.225,3.375c-0.15,1.15 -0.3,2.21 -0.45,3.18c-0.15,0.97 -0.225,1.745 -0.225,2.325c-0,0.36 0.045,0.68 0.135,0.96c0.09,0.28 0.315,0.42 0.675,0.42c0.34,-0 0.715,-0.215 1.125,-0.645c0.41,-0.43 0.765,-1.185 1.065,-2.265l0.84,0.21c-0.06,0.34 -0.185,0.75 -0.375,1.23c-0.19,0.48 -0.445,0.945 -0.765,1.395c-0.32,0.45 -0.71,0.825 -1.17,1.125c-0.46,0.3 -0.99,0.45 -1.59,0.45Z" style="fill:#092168;fill-rule:nonzero;"/></g><g><path d="M157.994,31.064c1.94,0.02 3.485,0.27 4.635,0.75c1.15,0.48 1.97,1.125 2.46,1.935c0.49,0.81 0.705,1.745 0.645,2.805c-0.04,0.76 -0.225,1.535 -0.555,2.325c-0.33,0.79 -0.905,1.505 -1.725,2.145c-0.82,0.64 -2,1.12 -3.54,1.44c0.32,0.36 0.56,0.625 0.72,0.795c0.16,0.17 0.29,0.31 0.39,0.42c0.1,0.11 0.21,0.265 0.33,0.465c0.12,0.2 0.3,0.51 0.54,0.93l1.86,3.21c0.32,0.54 0.625,1.025 0.915,1.455c0.29,0.43 0.64,0.77 1.05,1.02c0.41,0.25 0.925,0.375 1.545,0.375l-0.06,0.99l-3.66,0c-0.44,-0.38 -0.865,-0.865 -1.275,-1.455c-0.41,-0.59 -0.815,-1.215 -1.215,-1.875l-1.83,-3.21c-0.24,-0.44 -0.51,-0.93 -0.81,-1.47c-0.3,-0.54 -0.65,-1 -1.05,-1.38c-0.18,0.02 -0.435,0.03 -0.765,0.03c-0.33,0 -0.635,-0.005 -0.915,-0.015c-0.28,-0.01 -0.45,-0.015 -0.51,-0.015l-0.3,5.82c-0.02,0.54 -0.05,1.005 -0.09,1.395c-0.04,0.39 -0.08,0.715 -0.12,0.975c0.24,-0.02 0.48,-0.035 0.72,-0.045c0.24,-0.01 0.48,-0.025 0.72,-0.045c0.24,-0.02 0.48,-0.03 0.72,-0.03l-0.06,1.32l-6.63,0l0.06,-0.99c0.76,-0.04 1.29,-0.215 1.59,-0.525c0.3,-0.31 0.48,-0.74 0.54,-1.29c0.06,-0.55 0.1,-1.175 0.12,-1.875l0.69,-12.96c0.02,-0.4 0.05,-0.785 0.09,-1.155c0.04,-0.37 0.08,-0.705 0.12,-1.005c-0.36,0.02 -0.725,0.04 -1.095,0.06c-0.37,0.02 -0.735,0.04 -1.095,0.06l0.09,-1.32c1.12,-0.02 2.235,-0.04 3.345,-0.06c1.11,-0.02 2.245,-0.02 3.405,0Zm-0.18,1.14c-0.7,0 -1.2,0.14 -1.5,0.42c-0.3,0.28 -0.49,0.675 -0.57,1.185c-0.08,0.51 -0.14,1.125 -0.18,1.845l-0.33,5.91c0.32,0.02 0.625,0.04 0.915,0.06c0.29,0.02 0.605,0.02 0.945,0c1.1,-0.04 2.08,-0.22 2.94,-0.54c0.86,-0.32 1.545,-0.83 2.055,-1.53c0.51,-0.7 0.795,-1.62 0.855,-2.76c0.04,-0.76 -0.035,-1.425 -0.225,-1.995c-0.19,-0.57 -0.49,-1.05 -0.9,-1.44c-0.41,-0.39 -0.95,-0.68 -1.62,-0.87c-0.67,-0.19 -1.465,-0.285 -2.385,-0.285Z" style="fill:#092168;fill-rule:nonzero;"/><path d="M175.934,36.794c0.72,0 1.4,0.11 2.04,0.33c0.64,0.22 1.16,0.58 1.56,1.08c0.4,0.5 0.6,1.18 0.6,2.04c-0,0.82 -0.28,1.53 -0.84,2.13c-0.56,0.6 -1.29,1.095 -2.19,1.485c-0.9,0.39 -1.86,0.705 -2.88,0.945c-1.02,0.24 -2,0.41 -2.94,0.51c-0,1.24 0.125,2.28 0.375,3.12c0.25,0.84 0.625,1.47 1.125,1.89c0.5,0.42 1.14,0.63 1.92,0.63c0.58,0 1.165,-0.13 1.755,-0.39c0.59,-0.26 1.155,-0.655 1.695,-1.185c0.54,-0.53 1.03,-1.215 1.47,-2.055l0.99,0.57c-0.56,1.04 -1.16,1.9 -1.8,2.58c-0.64,0.68 -1.34,1.18 -2.1,1.5c-0.76,0.32 -1.6,0.48 -2.52,0.48c-1.9,0 -3.3,-0.595 -4.2,-1.785c-0.9,-1.19 -1.35,-2.755 -1.35,-4.695c-0,-1.16 0.15,-2.29 0.45,-3.39c0.3,-1.1 0.75,-2.085 1.35,-2.955c0.6,-0.87 1.36,-1.56 2.28,-2.07c0.92,-0.51 1.99,-0.765 3.21,-0.765Zm-0.42,1.02c-0.92,0 -1.675,0.31 -2.265,0.93c-0.59,0.62 -1.04,1.42 -1.35,2.4c-0.31,0.98 -0.505,2.01 -0.585,3.09c1.06,-0.14 2.07,-0.39 3.03,-0.75c0.96,-0.36 1.75,-0.825 2.37,-1.395c0.62,-0.57 0.93,-1.235 0.93,-1.995c-0,-0.64 -0.175,-1.18 -0.525,-1.62c-0.35,-0.44 -0.885,-0.66 -1.605,-0.66Z" style="fill:#092168;fill-rule:nonzero;"/><path d="M188.204,29.474c-0.06,0.5 -0.145,1.06 -0.255,1.68c-0.11,0.62 -0.21,1.23 -0.3,1.83c-0.09,0.6 -0.165,1.13 -0.225,1.59c-0.12,0.84 -0.24,1.795 -0.36,2.865c-0.12,1.07 -0.24,2.18 -0.36,3.33c-0.12,1.15 -0.225,2.275 -0.315,3.375c-0.09,1.1 -0.165,2.105 -0.225,3.015c-0.06,0.91 -0.09,1.655 -0.09,2.235c-0,0.38 0.04,0.735 0.12,1.065c0.08,0.33 0.31,0.495 0.69,0.495c0.34,0 0.715,-0.215 1.125,-0.645c0.41,-0.43 0.765,-1.185 1.065,-2.265l0.84,0.21c-0.06,0.34 -0.185,0.75 -0.375,1.23c-0.19,0.48 -0.445,0.945 -0.765,1.395c-0.32,0.45 -0.705,0.825 -1.155,1.125c-0.45,0.3 -0.975,0.45 -1.575,0.45c-0.82,0 -1.42,-0.205 -1.8,-0.615c-0.38,-0.41 -0.58,-1.015 -0.6,-1.815c-0.02,-0.5 0.005,-1.24 0.075,-2.22c0.07,-0.98 0.16,-2.095 0.27,-3.345c0.11,-1.25 0.235,-2.56 0.375,-3.93c0.14,-1.37 0.29,-2.705 0.45,-4.005c0.16,-1.3 0.31,-2.48 0.45,-3.54c0.1,-0.54 0.165,-0.895 0.195,-1.065c0.03,-0.17 0.055,-0.355 0.075,-0.555c-0.36,0.02 -0.715,0.04 -1.065,0.06c-0.35,0.02 -0.705,0.04 -1.065,0.06l0.15,-1.2c0.88,0 1.565,-0.04 2.055,-0.12c0.49,-0.08 0.865,-0.18 1.125,-0.3c0.26,-0.12 0.47,-0.25 0.63,-0.39l0.84,0Z" style="fill:#092168;fill-rule:nonzero;"/><path d="M198.734,36.794c0.72,0 1.4,0.11 2.04,0.33c0.64,0.22 1.16,0.58 1.56,1.08c0.4,0.5 0.6,1.18 0.6,2.04c-0,0.82 -0.28,1.53 -0.84,2.13c-0.56,0.6 -1.29,1.095 -2.19,1.485c-0.9,0.39 -1.86,0.705 -2.88,0.945c-1.02,0.24 -2,0.41 -2.94,0.51c-0,1.24 0.125,2.28 0.375,3.12c0.25,0.84 0.625,1.47 1.125,1.89c0.5,0.42 1.14,0.63 1.92,0.63c0.58,0 1.165,-0.13 1.755,-0.39c0.59,-0.26 1.155,-0.655 1.695,-1.185c0.54,-0.53 1.03,-1.215 1.47,-2.055l0.99,0.57c-0.56,1.04 -1.16,1.9 -1.8,2.58c-0.64,0.68 -1.34,1.18 -2.1,1.5c-0.76,0.32 -1.6,0.48 -2.52,0.48c-1.9,0 -3.3,-0.595 -4.2,-1.785c-0.9,-1.19 -1.35,-2.755 -1.35,-4.695c-0,-1.16 0.15,-2.29 0.45,-3.39c0.3,-1.1 0.75,-2.085 1.35,-2.955c0.6,-0.87 1.36,-1.56 2.28,-2.07c0.92,-0.51 1.99,-0.765 3.21,-0.765Zm-0.42,1.02c-0.92,0 -1.675,0.31 -2.265,0.93c-0.59,0.62 -1.04,1.42 -1.35,2.4c-0.31,0.98 -0.505,2.01 -0.585,3.09c1.06,-0.14 2.07,-0.39 3.03,-0.75c0.96,-0.36 1.75,-0.825 2.37,-1.395c0.62,-0.57 0.93,-1.235 0.93,-1.995c-0,-0.64 -0.175,-1.18 -0.525,-1.62c-0.35,-0.44 -0.885,-0.66 -1.605,-0.66Z" style="fill:#092168;fill-rule:nonzero;"/><path d="M214.454,36.794c0.6,0 1.26,0.045 1.98,0.135c0.72,0.09 1.4,0.215 2.04,0.375c-0.16,1.2 -0.315,2.395 -0.465,3.585c-0.15,1.19 -0.29,2.32 -0.42,3.39c-0.13,1.07 -0.235,2.03 -0.315,2.88c-0.08,0.85 -0.12,1.515 -0.12,1.995c-0,0.4 0.03,0.8 0.09,1.2c0.06,0.4 0.31,0.6 0.75,0.6c0.34,0 0.715,-0.22 1.125,-0.66c0.41,-0.44 0.765,-1.19 1.065,-2.25l0.84,0.18c-0.06,0.36 -0.185,0.775 -0.375,1.245c-0.19,0.47 -0.445,0.935 -0.765,1.395c-0.32,0.46 -0.71,0.84 -1.17,1.14c-0.46,0.3 -0.99,0.45 -1.59,0.45c-0.8,0 -1.37,-0.25 -1.71,-0.75c-0.34,-0.5 -0.51,-1.15 -0.51,-1.95c-0,-0.58 0.055,-1.21 0.165,-1.89c0.11,-0.68 0.235,-1.39 0.375,-2.13l-0.09,0c-0.48,1.48 -0.975,2.665 -1.485,3.555c-0.51,0.89 -1.02,1.565 -1.53,2.025c-0.51,0.46 -1.005,0.765 -1.485,0.915c-0.48,0.15 -0.93,0.225 -1.35,0.225c-1.08,0 -1.985,-0.4 -2.715,-1.2c-0.73,-0.8 -1.095,-2.14 -1.095,-4.02c-0,-1.4 0.18,-2.73 0.54,-3.99c0.36,-1.26 0.905,-2.375 1.635,-3.345c0.73,-0.97 1.645,-1.73 2.745,-2.28c1.1,-0.55 2.38,-0.825 3.84,-0.825Zm-0.93,1.08c-0.9,0 -1.685,0.25 -2.355,0.75c-0.67,0.5 -1.225,1.175 -1.665,2.025c-0.44,0.85 -0.765,1.8 -0.975,2.85c-0.21,1.05 -0.315,2.125 -0.315,3.225c-0,1.28 0.14,2.335 0.42,3.165c0.28,0.83 0.79,1.245 1.53,1.245c0.54,0 1.085,-0.27 1.635,-0.81c0.55,-0.54 1.065,-1.265 1.545,-2.175c0.48,-0.91 0.91,-1.93 1.29,-3.06c0.38,-1.13 0.68,-2.285 0.9,-3.465c0.22,-1.18 0.33,-2.31 0.33,-3.39c-0.3,-0.12 -0.65,-0.21 -1.05,-0.27c-0.4,-0.06 -0.83,-0.09 -1.29,-0.09Z" style="fill:#092168;fill-rule:nonzero;"/><path d="M226.724,52.454c-0.8,0 -1.57,-0.125 -2.31,-0.375c-0.74,-0.25 -1.34,-0.615 -1.8,-1.095c-0.46,-0.48 -0.69,-1.06 -0.69,-1.74c-0,-0.44 0.125,-0.795 0.375,-1.065c0.25,-0.27 0.555,-0.405 0.915,-0.405c0.4,0 0.705,0.13 0.915,0.39c0.21,0.26 0.315,0.55 0.315,0.87c-0,0.14 -0.02,0.29 -0.06,0.45c-0.04,0.16 -0.11,0.32 -0.21,0.48c0.16,0.44 0.48,0.78 0.96,1.02c0.48,0.24 0.99,0.36 1.53,0.36c1.08,0 1.89,-0.25 2.43,-0.75c0.54,-0.5 0.81,-1.2 0.81,-2.1c-0,-0.54 -0.19,-1.02 -0.57,-1.44c-0.38,-0.42 -0.86,-0.815 -1.44,-1.185c-0.58,-0.37 -1.18,-0.735 -1.8,-1.095c-0.58,-0.36 -1.135,-0.73 -1.665,-1.11c-0.53,-0.38 -0.96,-0.8 -1.29,-1.26c-0.33,-0.46 -0.495,-0.98 -0.495,-1.56c-0,-0.74 0.22,-1.415 0.66,-2.025c0.44,-0.61 1.05,-1.1 1.83,-1.47c0.78,-0.37 1.68,-0.555 2.7,-0.555c0.76,0 1.475,0.12 2.145,0.36c0.67,0.24 1.22,0.58 1.65,1.02c0.43,0.44 0.645,0.96 0.645,1.56c-0,0.42 -0.12,0.755 -0.36,1.005c-0.24,0.25 -0.54,0.375 -0.9,0.375c-0.36,0 -0.65,-0.12 -0.87,-0.36c-0.22,-0.24 -0.33,-0.52 -0.33,-0.84c-0,-0.16 0.02,-0.315 0.06,-0.465c0.04,-0.15 0.11,-0.305 0.21,-0.465c-0.1,-0.34 -0.345,-0.625 -0.735,-0.855c-0.39,-0.23 -0.925,-0.345 -1.605,-0.345c-0.44,0 -0.87,0.1 -1.29,0.3c-0.42,0.2 -0.77,0.475 -1.05,0.825c-0.28,0.35 -0.42,0.765 -0.42,1.245c-0,0.38 0.115,0.73 0.345,1.05c0.23,0.32 0.535,0.62 0.915,0.9c0.38,0.28 0.79,0.56 1.23,0.84c0.72,0.42 1.46,0.865 2.22,1.335c0.76,0.47 1.395,1.005 1.905,1.605c0.51,0.6 0.765,1.33 0.765,2.19c-0,0.84 -0.235,1.59 -0.705,2.25c-0.47,0.66 -1.13,1.18 -1.98,1.56c-0.85,0.38 -1.835,0.57 -2.955,0.57Z" style="fill:#092168;fill-rule:nonzero;"/><path d="M242.324,36.794c0.72,0 1.4,0.11 2.04,0.33c0.64,0.22 1.16,0.58 1.56,1.08c0.4,0.5 0.6,1.18 0.6,2.04c-0,0.82 -0.28,1.53 -0.84,2.13c-0.56,0.6 -1.29,1.095 -2.19,1.485c-0.9,0.39 -1.86,0.705 -2.88,0.945c-1.02,0.24 -2,0.41 -2.94,0.51c-0,1.24 0.125,2.28 0.375,3.12c0.25,0.84 0.625,1.47 1.125,1.89c0.5,0.42 1.14,0.63 1.92,0.63c0.58,0 1.165,-0.13 1.755,-0.39c0.59,-0.26 1.155,-0.655 1.695,-1.185c0.54,-0.53 1.03,-1.215 1.47,-2.055l0.99,0.57c-0.56,1.04 -1.16,1.9 -1.8,2.58c-0.64,0.68 -1.34,1.18 -2.1,1.5c-0.76,0.32 -1.6,0.48 -2.52,0.48c-1.9,0 -3.3,-0.595 -4.2,-1.785c-0.9,-1.19 -1.35,-2.755 -1.35,-4.695c-0,-1.16 0.15,-2.29 0.45,-3.39c0.3,-1.1 0.75,-2.085 1.35,-2.955c0.6,-0.87 1.36,-1.56 2.28,-2.07c0.92,-0.51 1.99,-0.765 3.21,-0.765Zm-0.42,1.02c-0.92,0 -1.675,0.31 -2.265,0.93c-0.59,0.62 -1.04,1.42 -1.35,2.4c-0.31,0.98 -0.505,2.01 -0.585,3.09c1.06,-0.14 2.07,-0.39 3.03,-0.75c0.96,-0.36 1.75,-0.825 2.37,-1.395c0.62,-0.57 0.93,-1.235 0.93,-1.995c-0,-0.64 -0.175,-1.18 -0.525,-1.62c-0.35,-0.44 -0.885,-0.66 -1.605,-0.66Z" style="fill:#092168;fill-rule:nonzero;"/></g><g><path d="M285.569,189.099c1.12,-0 2.165,0.15 3.135,0.45c0.97,0.3 1.895,0.75 2.775,1.35l0.03,-0l-0.06,-1.62l1.62,-0l-0.36,6.93l-1.08,-0c-0.1,-1.88 -0.68,-3.33 -1.74,-4.35c-1.06,-1.02 -2.46,-1.53 -4.2,-1.53c-1.06,-0 -2.065,0.225 -3.015,0.675c-0.95,0.45 -1.8,1.095 -2.55,1.935c-0.75,0.84 -1.35,1.85 -1.8,3.03c-0.45,1.18 -0.715,2.51 -0.795,3.99c-0.1,1.88 0.175,3.54 0.825,4.98c0.65,1.44 1.56,2.56 2.73,3.36c1.17,0.8 2.495,1.2 3.975,1.2c1.3,-0 2.59,-0.285 3.87,-0.855c1.28,-0.57 2.35,-1.405 3.21,-2.505l0.75,0.63c-0.92,1.16 -1.9,2.05 -2.94,2.67c-1.04,0.62 -2.055,1.045 -3.045,1.275c-0.99,0.23 -1.895,0.345 -2.715,0.345c-1.5,-0 -2.85,-0.27 -4.05,-0.81c-1.2,-0.54 -2.22,-1.295 -3.06,-2.265c-0.84,-0.97 -1.465,-2.1 -1.875,-3.39c-0.41,-1.29 -0.575,-2.685 -0.495,-4.185c0.08,-1.42 0.36,-2.8 0.84,-4.14c0.48,-1.34 1.17,-2.55 2.07,-3.63c0.9,-1.08 2.015,-1.94 3.345,-2.58c1.33,-0.64 2.865,-0.96 4.605,-0.96Z" style="fill:#092168;fill-rule:nonzero;"/><path d="M296.819,210.579c-0.02,-0.14 -0.03,-0.265 -0.03,-0.375l0,-0.405c0,-0.34 0.01,-0.745 0.03,-1.215c0.02,-0.47 0.065,-1.095 0.135,-1.875c0.07,-0.78 0.175,-1.8 0.315,-3.06c0.14,-1.3 0.25,-2.28 0.33,-2.94c0.08,-0.66 0.14,-1.145 0.18,-1.455c0.04,-0.31 0.06,-0.565 0.06,-0.765c0.02,-0.4 -0.005,-0.79 -0.075,-1.17c-0.07,-0.38 -0.315,-0.57 -0.735,-0.57c-0.32,-0 -0.69,0.22 -1.11,0.66c-0.42,0.44 -0.78,1.19 -1.08,2.25l-0.84,-0.18c0.06,-0.36 0.185,-0.775 0.375,-1.245c0.19,-0.47 0.445,-0.935 0.765,-1.395c0.32,-0.46 0.71,-0.84 1.17,-1.14c0.46,-0.3 0.99,-0.45 1.59,-0.45c0.9,-0 1.5,0.31 1.8,0.93c0.3,0.62 0.43,1.45 0.39,2.49c-0.02,0.44 -0.075,0.925 -0.165,1.455c-0.09,0.53 -0.185,1.085 -0.285,1.665l0.09,-0c0.58,-1.74 1.185,-3.08 1.815,-4.02c0.63,-0.94 1.27,-1.595 1.92,-1.965c0.65,-0.37 1.295,-0.555 1.935,-0.555c0.6,-0 1.1,0.155 1.5,0.465c0.4,0.31 0.6,0.735 0.6,1.275c0,0.36 -0.125,0.69 -0.375,0.99c-0.25,0.3 -0.585,0.45 -1.005,0.45c-0.36,-0 -0.67,-0.11 -0.93,-0.33c-0.26,-0.22 -0.41,-0.53 -0.45,-0.93c-0.56,-0.12 -1.105,0.06 -1.635,0.54c-0.53,0.48 -1.03,1.165 -1.5,2.055c-0.47,0.89 -0.88,1.885 -1.23,2.985c-0.35,1.1 -0.625,2.22 -0.825,3.36c-0.2,1.14 -0.3,2.2 -0.3,3.18c0,0.3 0.005,0.525 0.015,0.675c0.01,0.15 0.025,0.355 0.045,0.615l-2.49,-0Z" style="fill:#092168;fill-rule:nonzero;"/><path d="M315.599,195.249c0.72,-0 1.4,0.11 2.04,0.33c0.64,0.22 1.16,0.58 1.56,1.08c0.4,0.5 0.6,1.18 0.6,2.04c0,0.82 -0.28,1.53 -0.84,2.13c-0.56,0.6 -1.29,1.095 -2.19,1.485c-0.9,0.39 -1.86,0.705 -2.88,0.945c-1.02,0.24 -2,0.41 -2.94,0.51c0,1.24 0.125,2.28 0.375,3.12c0.25,0.84 0.625,1.47 1.125,1.89c0.5,0.42 1.14,0.63 1.92,0.63c0.58,-0 1.165,-0.13 1.755,-0.39c0.59,-0.26 1.155,-0.655 1.695,-1.185c0.54,-0.53 1.03,-1.215 1.47,-2.055l0.99,0.57c-0.56,1.04 -1.16,1.9 -1.8,2.58c-0.64,0.68 -1.34,1.18 -2.1,1.5c-0.76,0.32 -1.6,0.48 -2.52,0.48c-1.9,-0 -3.3,-0.595 -4.2,-1.785c-0.9,-1.19 -1.35,-2.755 -1.35,-4.695c0,-1.16 0.15,-2.29 0.45,-3.39c0.3,-1.1 0.75,-2.085 1.35,-2.955c0.6,-0.87 1.36,-1.56 2.28,-2.07c0.92,-0.51 1.99,-0.765 3.21,-0.765Zm-0.42,1.02c-0.92,-0 -1.675,0.31 -2.265,0.93c-0.59,0.62 -1.04,1.42 -1.35,2.4c-0.31,0.98 -0.505,2.01 -0.585,3.09c1.06,-0.14 2.07,-0.39 3.03,-0.75c0.96,-0.36 1.75,-0.825 2.37,-1.395c0.62,-0.57 0.93,-1.235 0.93,-1.995c0,-0.64 -0.175,-1.18 -0.525,-1.62c-0.35,-0.44 -0.885,-0.66 -1.605,-0.66Z" style="fill:#092168;fill-rule:nonzero;"/><path d="M331.319,195.249c0.6,-0 1.26,0.045 1.98,0.135c0.72,0.09 1.4,0.215 2.04,0.375c-0.16,1.2 -0.315,2.395 -0.465,3.585c-0.15,1.19 -0.29,2.32 -0.42,3.39c-0.13,1.07 -0.235,2.03 -0.315,2.88c-0.08,0.85 -0.12,1.515 -0.12,1.995c0,0.4 0.03,0.8 0.09,1.2c0.06,0.4 0.31,0.6 0.75,0.6c0.34,-0 0.715,-0.22 1.125,-0.66c0.41,-0.44 0.765,-1.19 1.065,-2.25l0.84,0.18c-0.06,0.36 -0.185,0.775 -0.375,1.245c-0.19,0.47 -0.445,0.935 -0.765,1.395c-0.32,0.46 -0.71,0.84 -1.17,1.14c-0.46,0.3 -0.99,0.45 -1.59,0.45c-0.8,-0 -1.37,-0.25 -1.71,-0.75c-0.34,-0.5 -0.51,-1.15 -0.51,-1.95c0,-0.58 0.055,-1.21 0.165,-1.89c0.11,-0.68 0.235,-1.39 0.375,-2.13l-0.09,-0c-0.48,1.48 -0.975,2.665 -1.485,3.555c-0.51,0.89 -1.02,1.565 -1.53,2.025c-0.51,0.46 -1.005,0.765 -1.485,0.915c-0.48,0.15 -0.93,0.225 -1.35,0.225c-1.08,-0 -1.985,-0.4 -2.715,-1.2c-0.73,-0.8 -1.095,-2.14 -1.095,-4.02c0,-1.4 0.18,-2.73 0.54,-3.99c0.36,-1.26 0.905,-2.375 1.635,-3.345c0.73,-0.97 1.645,-1.73 2.745,-2.28c1.1,-0.55 2.38,-0.825 3.84,-0.825Zm-0.93,1.08c-0.9,-0 -1.685,0.25 -2.355,0.75c-0.67,0.5 -1.225,1.175 -1.665,2.025c-0.44,0.85 -0.765,1.8 -0.975,2.85c-0.21,1.05 -0.315,2.125 -0.315,3.225c0,1.28 0.14,2.335 0.42,3.165c0.28,0.83 0.79,1.245 1.53,1.245c0.54,-0 1.085,-0.27 1.635,-0.81c0.55,-0.54 1.065,-1.265 1.545,-2.175c0.48,-0.91 0.91,-1.93 1.29,-3.06c0.38,-1.13 0.68,-2.285 0.9,-3.465c0.22,-1.18 0.33,-2.31 0.33,-3.39c-0.3,-0.12 -0.65,-0.21 -1.05,-0.27c-0.4,-0.06 -0.83,-0.09 -1.29,-0.09Z" style="fill:#092168;fill-rule:nonzero;"/><path d="M344.399,191.349l-0.54,4.23l4.77,-0l-0.09,1.14l-4.8,0.06c-0.08,0.84 -0.175,1.705 -0.285,2.595c-0.11,0.89 -0.205,1.775 -0.285,2.655c-0.08,0.88 -0.15,1.725 -0.21,2.535c-0.06,0.81 -0.09,1.545 -0.09,2.205c0,0.38 0.025,0.775 0.075,1.185c0.05,0.41 0.175,0.75 0.375,1.02c0.2,0.27 0.52,0.405 0.96,0.405c0.2,-0 0.445,-0.04 0.735,-0.12c0.29,-0.08 0.615,-0.27 0.975,-0.57c0.36,-0.3 0.73,-0.77 1.11,-1.41l0.78,0.51c-0.58,1.02 -1.205,1.795 -1.875,2.325c-0.67,0.53 -1.485,0.795 -2.445,0.795c-0.78,-0 -1.395,-0.165 -1.845,-0.495c-0.45,-0.33 -0.775,-0.765 -0.975,-1.305c-0.2,-0.54 -0.3,-1.12 -0.3,-1.74c0,-0.76 0.03,-1.685 0.09,-2.775c0.06,-1.09 0.15,-2.3 0.27,-3.63c0.12,-1.33 0.26,-2.715 0.42,-4.155l-2.67,0.03l0.09,-1.26c1.38,-0 2.4,-0.37 3.06,-1.11c0.66,-0.74 1.18,-1.78 1.56,-3.12l1.14,-0Z" style="fill:#092168;fill-rule:nonzero;"/><path d="M357.269,195.249c0.72,-0 1.4,0.11 2.04,0.33c0.64,0.22 1.16,0.58 1.56,1.08c0.4,0.5 0.6,1.18 0.6,2.04c0,0.82 -0.28,1.53 -0.84,2.13c-0.56,0.6 -1.29,1.095 -2.19,1.485c-0.9,0.39 -1.86,0.705 -2.88,0.945c-1.02,0.24 -2,0.41 -2.94,0.51c0,1.24 0.125,2.28 0.375,3.12c0.25,0.84 0.625,1.47 1.125,1.89c0.5,0.42 1.14,0.63 1.92,0.63c0.58,-0 1.165,-0.13 1.755,-0.39c0.59,-0.26 1.155,-0.655 1.695,-1.185c0.54,-0.53 1.03,-1.215 1.47,-2.055l0.99,0.57c-0.56,1.04 -1.16,1.9 -1.8,2.58c-0.64,0.68 -1.34,1.18 -2.1,1.5c-0.76,0.32 -1.6,0.48 -2.52,0.48c-1.9,-0 -3.3,-0.595 -4.2,-1.785c-0.9,-1.19 -1.35,-2.755 -1.35,-4.695c0,-1.16 0.15,-2.29 0.45,-3.39c0.3,-1.1 0.75,-2.085 1.35,-2.955c0.6,-0.87 1.36,-1.56 2.28,-2.07c0.92,-0.51 1.99,-0.765 3.21,-0.765Zm-0.42,1.02c-0.92,-0 -1.675,0.31 -2.265,0.93c-0.59,0.62 -1.04,1.42 -1.35,2.4c-0.31,0.98 -0.505,2.01 -0.585,3.09c1.06,-0.14 2.07,-0.39 3.03,-0.75c0.96,-0.36 1.75,-0.825 2.37,-1.395c0.62,-0.57 0.93,-1.235 0.93,-1.995c0,-0.64 -0.175,-1.18 -0.525,-1.62c-0.35,-0.44 -0.885,-0.66 -1.605,-0.66Z" style="fill:#092168;fill-rule:nonzero;"/></g><g><path d="M373.71,71.882c1.12,-0 2.165,0.15 3.135,0.45c0.97,0.3 1.895,0.75 2.775,1.35l0.03,-0l-0.06,-1.62l1.62,-0l-0.36,6.93l-1.08,-0c-0.1,-1.88 -0.68,-3.33 -1.74,-4.35c-1.06,-1.02 -2.46,-1.53 -4.2,-1.53c-1.06,-0 -2.065,0.225 -3.015,0.675c-0.95,0.45 -1.8,1.095 -2.55,1.935c-0.75,0.84 -1.35,1.85 -1.8,3.03c-0.45,1.18 -0.715,2.51 -0.795,3.99c-0.1,1.88 0.175,3.54 0.825,4.98c0.65,1.44 1.56,2.56 2.73,3.36c1.17,0.8 2.495,1.2 3.975,1.2c1.3,-0 2.59,-0.285 3.87,-0.855c1.28,-0.57 2.35,-1.405 3.21,-2.505l0.75,0.63c-0.92,1.16 -1.9,2.05 -2.94,2.67c-1.04,0.62 -2.055,1.045 -3.045,1.275c-0.99,0.23 -1.895,0.345 -2.715,0.345c-1.5,-0 -2.85,-0.27 -4.05,-0.81c-1.2,-0.54 -2.22,-1.295 -3.06,-2.265c-0.84,-0.97 -1.465,-2.1 -1.875,-3.39c-0.41,-1.29 -0.575,-2.685 -0.495,-4.185c0.08,-1.42 0.36,-2.8 0.84,-4.14c0.48,-1.34 1.17,-2.55 2.07,-3.63c0.9,-1.08 2.015,-1.94 3.345,-2.58c1.33,-0.64 2.865,-0.96 4.605,-0.96Z" style="fill:#092168;fill-rule:nonzero;"/><path d="M391.8,78.032c0.6,-0 1.26,0.045 1.98,0.135c0.72,0.09 1.4,0.215 2.04,0.375c-0.16,1.2 -0.315,2.395 -0.465,3.585c-0.15,1.19 -0.29,2.32 -0.42,3.39c-0.13,1.07 -0.235,2.03 -0.315,2.88c-0.08,0.85 -0.12,1.515 -0.12,1.995c0,0.4 0.03,0.8 0.09,1.2c0.06,0.4 0.31,0.6 0.75,0.6c0.34,-0 0.715,-0.22 1.125,-0.66c0.41,-0.44 0.765,-1.19 1.065,-2.25l0.84,0.18c-0.06,0.36 -0.185,0.775 -0.375,1.245c-0.19,0.47 -0.445,0.935 -0.765,1.395c-0.32,0.46 -0.71,0.84 -1.17,1.14c-0.46,0.3 -0.99,0.45 -1.59,0.45c-0.8,-0 -1.37,-0.25 -1.71,-0.75c-0.34,-0.5 -0.51,-1.15 -0.51,-1.95c0,-0.58 0.055,-1.21 0.165,-1.89c0.11,-0.68 0.235,-1.39 0.375,-2.13l-0.09,-0c-0.48,1.48 -0.975,2.665 -1.485,3.555c-0.51,0.89 -1.02,1.565 -1.53,2.025c-0.51,0.46 -1.005,0.765 -1.485,0.915c-0.48,0.15 -0.93,0.225 -1.35,0.225c-1.08,-0 -1.985,-0.4 -2.715,-1.2c-0.73,-0.8 -1.095,-2.14 -1.095,-4.02c0,-1.4 0.18,-2.73 0.54,-3.99c0.36,-1.26 0.905,-2.375 1.635,-3.345c0.73,-0.97 1.645,-1.73 2.745,-2.28c1.1,-0.55 2.38,-0.825 3.84,-0.825Zm-0.93,1.08c-0.9,-0 -1.685,0.25 -2.355,0.75c-0.67,0.5 -1.225,1.175 -1.665,2.025c-0.44,0.85 -0.765,1.8 -0.975,2.85c-0.21,1.05 -0.315,2.125 -0.315,3.225c0,1.28 0.14,2.335 0.42,3.165c0.28,0.83 0.79,1.245 1.53,1.245c0.54,-0 1.085,-0.27 1.635,-0.81c0.55,-0.54 1.065,-1.265 1.545,-2.175c0.48,-0.91 0.91,-1.93 1.29,-3.06c0.38,-1.13 0.68,-2.285 0.9,-3.465c0.22,-1.18 0.33,-2.31 0.33,-3.39c-0.3,-0.12 -0.65,-0.21 -1.05,-0.27c-0.4,-0.06 -0.83,-0.09 -1.29,-0.09Z" style="fill:#092168;fill-rule:nonzero;"/><path d="M404.88,74.132l-0.54,4.23l4.77,-0l-0.09,1.14l-4.8,0.06c-0.08,0.84 -0.175,1.705 -0.285,2.595c-0.11,0.89 -0.205,1.775 -0.285,2.655c-0.08,0.88 -0.15,1.725 -0.21,2.535c-0.06,0.81 -0.09,1.545 -0.09,2.205c0,0.38 0.025,0.775 0.075,1.185c0.05,0.41 0.175,0.75 0.375,1.02c0.2,0.27 0.52,0.405 0.96,0.405c0.2,-0 0.445,-0.04 0.735,-0.12c0.29,-0.08 0.615,-0.27 0.975,-0.57c0.36,-0.3 0.73,-0.77 1.11,-1.41l0.78,0.51c-0.58,1.02 -1.205,1.795 -1.875,2.325c-0.67,0.53 -1.485,0.795 -2.445,0.795c-0.78,-0 -1.395,-0.165 -1.845,-0.495c-0.45,-0.33 -0.775,-0.765 -0.975,-1.305c-0.2,-0.54 -0.3,-1.12 -0.3,-1.74c0,-0.76 0.03,-1.685 0.09,-2.775c0.06,-1.09 0.15,-2.3 0.27,-3.63c0.12,-1.33 0.26,-2.715 0.42,-4.155l-2.67,0.03l0.09,-1.26c1.38,-0 2.4,-0.37 3.06,-1.11c0.66,-0.74 1.18,-1.78 1.56,-3.12l1.14,-0Z" style="fill:#092168;fill-rule:nonzero;"/><path d="M419.16,78.032c0.6,-0 1.26,0.045 1.98,0.135c0.72,0.09 1.4,0.215 2.04,0.375c-0.16,1.2 -0.315,2.395 -0.465,3.585c-0.15,1.19 -0.29,2.32 -0.42,3.39c-0.13,1.07 -0.235,2.03 -0.315,2.88c-0.08,0.85 -0.12,1.515 -0.12,1.995c0,0.4 0.03,0.8 0.09,1.2c0.06,0.4 0.31,0.6 0.75,0.6c0.34,-0 0.715,-0.22 1.125,-0.66c0.41,-0.44 0.765,-1.19 1.065,-2.25l0.84,0.18c-0.06,0.36 -0.185,0.775 -0.375,1.245c-0.19,0.47 -0.445,0.935 -0.765,1.395c-0.32,0.46 -0.71,0.84 -1.17,1.14c-0.46,0.3 -0.99,0.45 -1.59,0.45c-0.8,-0 -1.37,-0.25 -1.71,-0.75c-0.34,-0.5 -0.51,-1.15 -0.51,-1.95c0,-0.58 0.055,-1.21 0.165,-1.89c0.11,-0.68 0.235,-1.39 0.375,-2.13l-0.09,-0c-0.48,1.48 -0.975,2.665 -1.485,3.555c-0.51,0.89 -1.02,1.565 -1.53,2.025c-0.51,0.46 -1.005,0.765 -1.485,0.915c-0.48,0.15 -0.93,0.225 -1.35,0.225c-1.08,-0 -1.985,-0.4 -2.715,-1.2c-0.73,-0.8 -1.095,-2.14 -1.095,-4.02c0,-1.4 0.18,-2.73 0.54,-3.99c0.36,-1.26 0.905,-2.375 1.635,-3.345c0.73,-0.97 1.645,-1.73 2.745,-2.28c1.1,-0.55 2.38,-0.825 3.84,-0.825Zm-0.93,1.08c-0.9,-0 -1.685,0.25 -2.355,0.75c-0.67,0.5 -1.225,1.175 -1.665,2.025c-0.44,0.85 -0.765,1.8 -0.975,2.85c-0.21,1.05 -0.315,2.125 -0.315,3.225c0,1.28 0.14,2.335 0.42,3.165c0.28,0.83 0.79,1.245 1.53,1.245c0.54,-0 1.085,-0.27 1.635,-0.81c0.55,-0.54 1.065,-1.265 1.545,-2.175c0.48,-0.91 0.91,-1.93 1.29,-3.06c0.38,-1.13 0.68,-2.285 0.9,-3.465c0.22,-1.18 0.33,-2.31 0.33,-3.39c-0.3,-0.12 -0.65,-0.21 -1.05,-0.27c-0.4,-0.06 -0.83,-0.09 -1.29,-0.09Z" style="fill:#092168;fill-rule:nonzero;"/><path d="M432.15,70.712c-0.06,0.5 -0.145,1.06 -0.255,1.68c-0.11,0.62 -0.21,1.23 -0.3,1.83c-0.09,0.6 -0.165,1.13 -0.225,1.59c-0.12,0.84 -0.24,1.795 -0.36,2.865c-0.12,1.07 -0.24,2.18 -0.36,3.33c-0.12,1.15 -0.225,2.275 -0.315,3.375c-0.09,1.1 -0.165,2.105 -0.225,3.015c-0.06,0.91 -0.09,1.655 -0.09,2.235c0,0.38 0.04,0.735 0.12,1.065c0.08,0.33 0.31,0.495 0.69,0.495c0.34,-0 0.715,-0.215 1.125,-0.645c0.41,-0.43 0.765,-1.185 1.065,-2.265l0.84,0.21c-0.06,0.34 -0.185,0.75 -0.375,1.23c-0.19,0.48 -0.445,0.945 -0.765,1.395c-0.32,0.45 -0.705,0.825 -1.155,1.125c-0.45,0.3 -0.975,0.45 -1.575,0.45c-0.82,-0 -1.42,-0.205 -1.8,-0.615c-0.38,-0.41 -0.58,-1.015 -0.6,-1.815c-0.02,-0.5 0.005,-1.24 0.075,-2.22c0.07,-0.98 0.16,-2.095 0.27,-3.345c0.11,-1.25 0.235,-2.56 0.375,-3.93c0.14,-1.37 0.29,-2.705 0.45,-4.005c0.16,-1.3 0.31,-2.48 0.45,-3.54c0.1,-0.54 0.165,-0.895 0.195,-1.065c0.03,-0.17 0.055,-0.355 0.075,-0.555c-0.36,0.02 -0.715,0.04 -1.065,0.06c-0.35,0.02 -0.705,0.04 -1.065,0.06l0.15,-1.2c0.88,-0 1.565,-0.04 2.055,-0.12c0.49,-0.08 0.865,-0.18 1.125,-0.3c0.26,-0.12 0.47,-0.25 0.63,-0.39l0.84,-0Z" style="fill:#092168;fill-rule:nonzero;"/><path d="M442.8,78.032c1.08,-0 2.05,0.255 2.91,0.765c0.86,0.51 1.54,1.255 2.04,2.235c0.5,0.98 0.75,2.17 0.75,3.57c0,1.6 -0.29,3.095 -0.87,4.485c-0.58,1.39 -1.415,2.505 -2.505,3.345c-1.09,0.84 -2.415,1.26 -3.975,1.26c-1.32,-0 -2.405,-0.3 -3.255,-0.9c-0.85,-0.6 -1.48,-1.41 -1.89,-2.43c-0.41,-1.02 -0.615,-2.15 -0.615,-3.39c0,-1.62 0.295,-3.11 0.885,-4.47c0.59,-1.36 1.44,-2.445 2.55,-3.255c1.11,-0.81 2.435,-1.215 3.975,-1.215Zm-0.45,1.11c-0.88,-0.02 -1.64,0.275 -2.28,0.885c-0.64,0.61 -1.135,1.435 -1.485,2.475c-0.35,1.04 -0.535,2.2 -0.555,3.48c-0.02,0.68 0.02,1.4 0.12,2.16c0.1,0.76 0.275,1.47 0.525,2.13c0.25,0.66 0.6,1.2 1.05,1.62c0.45,0.42 1.015,0.64 1.695,0.66c0.8,0.02 1.48,-0.195 2.04,-0.645c0.56,-0.45 1.01,-1.035 1.35,-1.755c0.34,-0.72 0.595,-1.49 0.765,-2.31c0.17,-0.82 0.265,-1.59 0.285,-2.31c0.02,-0.7 -0.015,-1.42 -0.105,-2.16c-0.09,-0.74 -0.265,-1.43 -0.525,-2.07c-0.26,-0.64 -0.62,-1.155 -1.08,-1.545c-0.46,-0.39 -1.06,-0.595 -1.8,-0.615Z" style="fill:#092168;fill-rule:nonzero;"/><path d="M454.71,101.492c-0.36,-0 -0.785,-0.04 -1.275,-0.12c-0.49,-0.08 -0.975,-0.215 -1.455,-0.405c-0.48,-0.19 -0.88,-0.45 -1.2,-0.78c-0.32,-0.33 -0.49,-0.735 -0.51,-1.215c0,-0.28 0.06,-0.535 0.18,-0.765c0.12,-0.23 0.29,-0.415 0.51,-0.555c0.22,-0.14 0.46,-0.21 0.72,-0.21c0.36,-0 0.675,0.115 0.945,0.345c0.27,0.23 0.405,0.575 0.405,1.035c0,0.24 -0.06,0.5 -0.18,0.78c0.2,0.3 0.505,0.515 0.915,0.645c0.41,0.13 0.795,0.195 1.155,0.195c1.14,-0 2.045,-0.3 2.715,-0.9c0.67,-0.6 1.185,-1.395 1.545,-2.385c0.36,-0.99 0.62,-2.065 0.78,-3.225c0.18,-1.18 0.31,-2.385 0.39,-3.615c0.08,-1.23 0.19,-2.345 0.33,-3.345l-0.09,-0c-0.42,1.44 -0.86,2.605 -1.32,3.495c-0.46,0.89 -0.93,1.57 -1.41,2.04c-0.48,0.47 -0.955,0.785 -1.425,0.945c-0.47,0.16 -0.935,0.24 -1.395,0.24c-0.92,-0 -1.68,-0.255 -2.28,-0.765c-0.6,-0.51 -1.045,-1.205 -1.335,-2.085c-0.29,-0.88 -0.435,-1.87 -0.435,-2.97c0,-1.3 0.175,-2.535 0.525,-3.705c0.35,-1.17 0.88,-2.22 1.59,-3.15c0.71,-0.93 1.62,-1.66 2.73,-2.19c1.11,-0.53 2.415,-0.795 3.915,-0.795c0.68,-0 1.365,0.045 2.055,0.135c0.69,0.09 1.275,0.215 1.755,0.375c-0.08,1.2 -0.165,2.42 -0.255,3.66c-0.09,1.24 -0.19,2.47 -0.3,3.69c-0.11,1.22 -0.215,2.42 -0.315,3.6c-0.1,1.18 -0.2,2.33 -0.3,3.45c-0.16,1.94 -0.565,3.54 -1.215,4.8c-0.65,1.26 -1.52,2.2 -2.61,2.82c-1.09,0.62 -2.375,0.93 -3.855,0.93Zm0.96,-9.21c0.56,-0 1.105,-0.275 1.635,-0.825c0.53,-0.55 1.02,-1.28 1.47,-2.19c0.45,-0.91 0.85,-1.925 1.2,-3.045c0.35,-1.12 0.635,-2.265 0.855,-3.435c0.22,-1.17 0.36,-2.265 0.42,-3.285c-0.26,-0.14 -0.565,-0.24 -0.915,-0.3c-0.35,-0.06 -0.705,-0.09 -1.065,-0.09c-1.1,-0 -2.02,0.265 -2.76,0.795c-0.74,0.53 -1.33,1.22 -1.77,2.07c-0.44,0.85 -0.755,1.75 -0.945,2.7c-0.19,0.95 -0.285,1.845 -0.285,2.685c0,0.92 0.065,1.75 0.195,2.49c0.13,0.74 0.355,1.33 0.675,1.77c0.32,0.44 0.75,0.66 1.29,0.66Z" style="fill:#092168;fill-rule:nonzero;"/><path d="M471.63,93.692c-0.8,-0 -1.44,-0.18 -1.92,-0.54c-0.48,-0.36 -0.825,-0.84 -1.035,-1.44c-0.21,-0.6 -0.315,-1.24 -0.315,-1.92c0,-1.12 0.08,-2.25 0.24,-3.39c0.16,-1.14 0.32,-2.195 0.48,-3.165c0.16,-0.97 0.24,-1.735 0.24,-2.295c0,-0.38 -0.045,-0.71 -0.135,-0.99c-0.09,-0.28 -0.315,-0.42 -0.675,-0.42c-0.32,-0 -0.675,0.22 -1.065,0.66c-0.39,0.44 -0.735,1.19 -1.035,2.25l-0.84,-0.18c0.06,-0.36 0.18,-0.775 0.36,-1.245c0.18,-0.47 0.425,-0.935 0.735,-1.395c0.31,-0.46 0.69,-0.84 1.14,-1.14c0.45,-0.3 0.975,-0.45 1.575,-0.45c0.8,-0 1.405,0.25 1.815,0.75c0.41,0.5 0.615,1.22 0.615,2.16c0,0.56 -0.05,1.25 -0.15,2.07c-0.1,0.82 -0.215,1.675 -0.345,2.565c-0.13,0.89 -0.245,1.755 -0.345,2.595c-0.1,0.84 -0.15,1.58 -0.15,2.22c0,0.22 0.035,0.48 0.105,0.78c0.07,0.3 0.21,0.56 0.42,0.78c0.21,0.22 0.505,0.33 0.885,0.33c0.56,-0 1.11,-0.26 1.65,-0.78c0.54,-0.52 1.05,-1.22 1.53,-2.1c0.48,-0.88 0.91,-1.855 1.29,-2.925c0.38,-1.07 0.675,-2.17 0.885,-3.3c0.21,-1.13 0.315,-2.205 0.315,-3.225c0,-0.3 -0.005,-0.575 -0.015,-0.825c-0.01,-0.25 -0.025,-0.505 -0.045,-0.765l2.52,-0c0.02,0.14 0.03,0.265 0.03,0.375l0,0.405c0,0.34 -0.02,0.745 -0.06,1.215c-0.04,0.47 -0.1,1.09 -0.18,1.86c-0.08,0.77 -0.2,1.785 -0.36,3.045c-0.14,1.16 -0.245,2.07 -0.315,2.73c-0.07,0.66 -0.125,1.155 -0.165,1.485c-0.04,0.33 -0.065,0.585 -0.075,0.765c-0.01,0.18 -0.015,0.38 -0.015,0.6c0,0.36 0.055,0.67 0.165,0.93c0.11,0.26 0.325,0.39 0.645,0.39c0.34,-0 0.715,-0.215 1.125,-0.645c0.41,-0.43 0.765,-1.175 1.065,-2.235l0.84,0.18c-0.06,0.36 -0.185,0.775 -0.375,1.245c-0.19,0.47 -0.445,0.935 -0.765,1.395c-0.32,0.46 -0.71,0.84 -1.17,1.14c-0.46,0.3 -0.99,0.45 -1.59,0.45c-0.8,-0 -1.385,-0.25 -1.755,-0.75c-0.37,-0.5 -0.555,-1.15 -0.555,-1.95c0,-0.58 0.055,-1.21 0.165,-1.89c0.11,-0.68 0.235,-1.39 0.375,-2.13l-0.09,-0c-0.68,1.82 -1.33,3.215 -1.95,4.185c-0.62,0.97 -1.23,1.635 -1.83,1.995c-0.6,0.36 -1.23,0.54 -1.89,0.54Z" style="fill:#092168;fill-rule:nonzero;"/><path d="M491.64,78.032c0.72,-0 1.4,0.11 2.04,0.33c0.64,0.22 1.16,0.58 1.56,1.08c0.4,0.5 0.6,1.18 0.6,2.04c0,0.82 -0.28,1.53 -0.84,2.13c-0.56,0.6 -1.29,1.095 -2.19,1.485c-0.9,0.39 -1.86,0.705 -2.88,0.945c-1.02,0.24 -2,0.41 -2.94,0.51c0,1.24 0.125,2.28 0.375,3.12c0.25,0.84 0.625,1.47 1.125,1.89c0.5,0.42 1.14,0.63 1.92,0.63c0.58,-0 1.165,-0.13 1.755,-0.39c0.59,-0.26 1.155,-0.655 1.695,-1.185c0.54,-0.53 1.03,-1.215 1.47,-2.055l0.99,0.57c-0.56,1.04 -1.16,1.9 -1.8,2.58c-0.64,0.68 -1.34,1.18 -2.1,1.5c-0.76,0.32 -1.6,0.48 -2.52,0.48c-1.9,-0 -3.3,-0.595 -4.2,-1.785c-0.9,-1.19 -1.35,-2.755 -1.35,-4.695c0,-1.16 0.15,-2.29 0.45,-3.39c0.3,-1.1 0.75,-2.085 1.35,-2.955c0.6,-0.87 1.36,-1.56 2.28,-2.07c0.92,-0.51 1.99,-0.765 3.21,-0.765Zm-0.42,1.02c-0.92,-0 -1.675,0.31 -2.265,0.93c-0.59,0.62 -1.04,1.42 -1.35,2.4c-0.31,0.98 -0.505,2.01 -0.585,3.09c1.06,-0.14 2.07,-0.39 3.03,-0.75c0.96,-0.36 1.75,-0.825 2.37,-1.395c0.62,-0.57 0.93,-1.235 0.93,-1.995c0,-0.64 -0.175,-1.18 -0.525,-1.62c-0.35,-0.44 -0.885,-0.66 -1.605,-0.66Z" style="fill:#092168;fill-rule:nonzero;"/></g></g></svg>